<svg width="345" height="81" viewBox="0 0 345 81" fill="none" xmlns="http://www.w3.org/2000/svg">
<g opacity="0.7">
<path d="M-6.99536 39.7761C-6.99536 27.6546 2.83105 17.8281 14.9526 17.8281C27.0741 17.8281 36.9005 27.6545 36.9005 39.776V40.8711C36.9005 52.9926 27.0741 62.819 14.9526 62.819C2.83105 62.819 -6.99536 52.9926 -6.99536 40.8711V39.7761Z" fill="#6E7383" fill-opacity="0.4"/>
<path d="M-8.08984 38.1053C-8.08984 26.9065 0.988547 17.8281 12.1873 17.8281H14.6947C25.8935 17.8281 34.9719 26.9065 34.9719 38.1053C34.9719 49.304 25.8935 58.3824 14.6947 58.3824H12.1873C0.988534 58.3824 -8.08984 49.304 -8.08984 38.1053Z" fill="url(#paint0_linear_20787_4763)"/>
<path d="M5.02124 34.9368L11.2186 26.5693L17.416 34.9368" stroke="white" stroke-width="4.87747" stroke-linecap="square"/>
<path d="M22.9773 41.6745L16.7799 50.042L10.5826 41.6745" stroke="white" stroke-width="4.87747" stroke-linecap="square"/>
</g>
<g opacity="0.7">
<rect x="62.9011" y="17.8281" width="44.9909" height="44.9909" rx="8.36691" fill="#2122B8"/>
<circle cx="85.3966" cy="40.1995" r="22.4954" fill="#2122B8"/>
<rect width="33.7431" height="9.84175" transform="translate(68.5261 35.9834)" fill="#2122B8"/>
<path d="M88.8162 31.8793H86.6164L85.9281 32.5728V31.8793H84.4949V40.2568H85.6602L86.1067 39.814V37.9518H88.8141L89.8073 36.9667V32.8601L88.8141 31.875L88.8162 31.8793ZM88.1846 36.498H86.1089V33.735L86.5271 33.3656H88.1846V36.498Z" fill="white"/>
<path d="M77.1522 37.9526L78.1454 36.9675V35.5028L74.569 33.5781V33.0639L76.9017 33.0596V33.82L78.2565 33.8243V32.863L77.0498 31.8779H73.9591L72.9789 32.863V34.3277L76.5423 36.2525V36.7666H74.4557V36.0732H72.9441V36.9675L73.9373 37.9526H77.1522Z" fill="white"/>
<path d="M81.7653 37.9526L82.4536 37.2591V37.9526H83.8868V31.8779H82.2728V36.0948L81.8546 36.4642H80.208V31.8779H78.5962V36.9675L79.5894 37.9526H81.7653Z" fill="white"/>
<path d="M91.2858 31.8779L90.3035 32.863V36.9675L91.2858 37.9526H94.4898L95.4721 36.9675V35.8377H93.9148V36.6543H91.8848V35.2112H95.4721V32.863L94.4898 31.8779H91.2858ZM93.9148 34.4054H91.8848V33.1741H93.9148V34.4054Z" fill="white"/>
<path d="M98.1984 31.8779L97.3751 32.6945V31.8779H95.9441V37.9526H97.1137L97.5559 37.514V33.8481L98.0307 33.4117H99.575V31.8779H98.1984Z" fill="white"/>
<path d="M78.4262 42.5039L77.8511 43.0742L77.2761 42.5039H75.0653L74.377 43.1973V42.5039H72.9438V48.5786H74.5578V44.3617L74.9739 43.9923H76.6096V48.5786H78.2236V44.4222L78.657 43.9923H80.2318V48.5786H81.8436V43.489L80.8526 42.5039H78.4262Z" fill="white"/>
<path d="M84.3453 43.8798H85.9048V45.1327H83.2889L82.2957 46.1178V47.5954L83.2889 48.5805H85.4104L86.1095 47.8763V48.5805H87.4621V43.4909L86.4689 42.5059H83.3673L82.3741 43.4909V44.476H83.8966V44.327L84.3431 43.8841L84.3453 43.8798ZM85.9048 46.9668L85.4997 47.3146H83.853V45.9947H85.9048V46.969V46.9668Z" fill="white"/>
<path d="M88.0261 48.5783H89.1914L89.6401 48.1355V40.2656H88.0261V48.5783Z" fill="white"/>
<path d="M90.2019 48.5783H91.3672L91.8137 48.1355V40.2656H90.2019V48.5783Z" fill="white"/>
</g>
<rect x="133.892" y="0.21875" width="80.2101" height="80.2101" rx="14.9166" fill="#FFE600"/>
<circle cx="173.997" cy="40.1051" r="40.1051" fill="#FFE600"/>
<g clip-path="url(#clip0_20787_4763)">
<rect width="60.1576" height="17.546" transform="translate(143.919 32.5869)" fill="#FFE600"/>
<path d="M193.771 40.5747C193.771 38.9268 194.947 37.2519 197.184 37.2519C198.934 37.2519 199.981 38.4135 199.981 40.3586V48.3143H203.782V40.1019C203.782 36.2254 201.401 33.7266 197.715 33.7266C196.023 33.7266 194.488 34.2398 193.297 35.1988L192.953 34.0642H189.97V48.3143H193.771V40.5747Z" fill="#171717"/>
<path d="M165.56 33.7266C161.3 33.7266 157.958 36.9953 157.958 41.1825C157.958 45.3697 161.3 48.6385 165.56 48.6385C169.819 48.6385 173.161 45.3697 173.161 41.1825C173.161 36.9953 169.819 33.7266 165.56 33.7266ZM165.56 45.0996C163.394 45.0996 161.816 43.4517 161.816 41.169C161.816 38.8863 163.394 37.2519 165.56 37.2519C167.725 37.2519 169.303 38.8998 169.303 41.169C169.303 43.4382 167.725 45.0996 165.56 45.0996Z" fill="#171717"/>
<path d="M147.173 40.5747C147.173 38.9268 148.349 37.2519 150.586 37.2519C152.336 37.2519 153.383 38.4135 153.383 40.3586V48.3143H157.184V40.1019C157.184 36.2254 154.803 33.7266 151.117 33.7266C149.425 33.7266 147.89 34.2398 146.699 35.1988L146.355 34.0642H143.372V48.3143H147.173V40.5747Z" fill="#171717"/>
<path d="M181.595 33.7266C177.335 33.7266 173.993 36.9953 173.993 41.1825C173.993 45.3697 177.335 48.6385 181.595 48.6385C185.855 48.6385 189.196 45.3697 189.196 41.1825C189.196 36.9953 185.855 33.7266 181.595 33.7266ZM181.595 45.0996C179.429 45.0996 177.852 43.4517 177.852 41.169C177.852 38.8863 179.429 37.2519 181.595 37.2519C183.761 37.2519 185.338 38.8998 185.338 41.169C185.338 43.4382 183.761 45.0996 181.595 45.0996Z" fill="#171717"/>
</g>
<g opacity="0.7">
<rect x="240.102" y="17.8281" width="44.9909" height="44.9909" rx="8.36691" fill="#E5004E"/>
<g clip-path="url(#clip1_20787_4763)">
<rect width="33.7431" height="9.84175" transform="translate(245.727 35.9854)" fill="#FFE600"/>
<path d="M273.687 40.4652C273.687 39.5409 274.347 38.6014 275.602 38.6014C276.583 38.6014 277.17 39.253 277.17 40.344V44.8064H279.302V40.2001C279.302 38.0256 277.967 36.624 275.899 36.624C274.95 36.624 274.089 36.9119 273.422 37.4498L273.229 36.8134H271.555V44.8064H273.687V40.4652Z" fill="#171717"/>
<path d="M257.866 36.624C255.476 36.624 253.602 38.4575 253.602 40.8062C253.602 43.1548 255.476 44.9883 257.866 44.9883C260.255 44.9883 262.13 43.1548 262.13 40.8062C262.13 38.4575 260.255 36.624 257.866 36.624ZM257.866 43.0033C256.651 43.0033 255.766 42.079 255.766 40.7986C255.766 39.5182 256.651 38.6014 257.866 38.6014C259.081 38.6014 259.966 39.5258 259.966 40.7986C259.966 42.0714 259.081 43.0033 257.866 43.0033Z" fill="#171717"/>
<path d="M247.554 40.4652C247.554 39.5409 248.214 38.6014 249.469 38.6014C250.45 38.6014 251.038 39.253 251.038 40.344V44.8064H253.169V40.2001C253.169 38.0256 251.834 36.624 249.767 36.624C248.817 36.624 247.956 36.9119 247.289 37.4498L247.096 36.8134H245.422V44.8064H247.554V40.4652Z" fill="#171717"/>
<path d="M266.858 36.624C264.469 36.624 262.594 38.4575 262.594 40.8062C262.594 43.1548 264.469 44.9883 266.858 44.9883C269.247 44.9883 271.122 43.1548 271.122 40.8062C271.122 38.4575 269.247 36.624 266.858 36.624ZM266.858 43.0033C265.643 43.0033 264.758 42.079 264.758 40.7986C264.758 39.5182 265.643 38.6014 266.858 38.6014C268.073 38.6014 268.958 39.5258 268.958 40.7986C268.958 42.0714 268.073 43.0033 266.858 43.0033Z" fill="#171717"/>
</g>
<circle cx="263.61" cy="39.9726" r="20.0194" fill="#E5004E"/>
<g clip-path="url(#clip2_20787_4763)">
<path d="M250.997 41.1455C249.697 41.1455 248.413 41.1455 247.182 41.1455C246.818 41.1455 246.537 41.2743 246.339 41.5247C246.172 41.7466 246.157 41.9827 246.157 42.1473C246.157 42.9415 246.157 43.7358 246.157 44.5301L246.157 45.9826C246.157 46.8198 246.157 47.6498 246.157 48.487C246.157 48.6015 246.164 48.7017 246.187 48.7875C246.271 49.1596 246.582 49.4315 246.977 49.4887C247.038 49.4959 247.091 49.5031 247.152 49.5031C247.524 49.5031 247.843 49.3385 248.026 49.0451C248.147 48.8519 248.163 48.6444 248.163 48.5085C248.163 47.9217 248.163 47.3421 248.163 46.7554V46.183C248.915 46.183 249.659 46.183 250.412 46.183C250.503 46.183 250.586 46.183 250.677 46.1686C250.943 46.1329 251.179 45.9898 251.323 45.7679C251.468 45.5533 251.513 45.2885 251.43 45.0524C251.316 44.6946 250.966 44.4442 250.571 44.4298C250.518 44.4298 250.465 44.4298 250.412 44.4298H250.389C249.644 44.4298 248.9 44.4298 248.155 44.4298C248.155 43.8861 248.155 43.3637 248.155 42.9057H248.854C249.545 42.9057 250.237 42.9057 250.921 42.9057H250.959C251.019 42.9057 251.088 42.9057 251.156 42.9057C251.475 42.87 251.756 42.6911 251.901 42.4335C252.037 42.183 252.037 41.8897 251.886 41.6249C251.764 41.4103 251.513 41.1527 250.981 41.1527L250.997 41.1455Z" fill="white"/>
<path d="M278.631 44.6589C278.54 43.8861 278.304 43.2349 277.909 42.6768C277.567 42.183 277.119 41.7966 276.594 41.5319C276.07 41.2743 275.485 41.1455 274.809 41.1455C273.806 41.1455 272.834 41.1455 272.013 41.1455C271.656 41.1455 271.375 41.2743 271.185 41.5176C271.01 41.7394 270.995 41.9827 270.995 42.1473C270.995 42.9487 270.995 43.7429 270.995 44.5443V48.3868C270.995 48.4798 270.995 48.58 271.01 48.6945C271.056 49.0666 271.306 49.3528 271.679 49.4673C271.823 49.5102 271.96 49.5174 272.066 49.5174C272.454 49.5174 272.841 49.5174 273.229 49.5174C273.662 49.5174 274.087 49.5174 274.52 49.5174H274.535C274.839 49.5174 275.09 49.5102 275.326 49.4887C276.093 49.4172 276.754 49.1453 277.309 48.6659C277.879 48.1722 278.266 47.5425 278.494 46.741C278.676 46.097 278.729 45.3958 278.638 44.6731L278.631 44.6589ZM276.427 46.5335C276.283 46.9629 276.032 47.2778 275.668 47.5067C275.493 47.6141 275.288 47.6855 275.022 47.7142C274.885 47.7285 274.733 47.7429 274.558 47.7429C274.034 47.7429 273.51 47.7429 272.985 47.7429V42.8986C273.099 42.8986 273.213 42.8986 273.327 42.8986C273.768 42.8986 274.232 42.8986 274.68 42.8986C275.09 42.8986 275.402 42.9773 275.668 43.149C275.971 43.3422 276.199 43.607 276.359 43.9719C276.503 44.301 276.587 44.6589 276.61 45.1097C276.64 45.6105 276.572 46.0827 276.42 46.5335H276.427Z" fill="white"/>
<path d="M268.935 42.2906C268.267 41.6108 267.431 41.203 266.458 41.0742C265.798 40.9883 265.167 41.0312 264.567 41.203C263.579 41.4964 262.796 42.0616 262.234 42.8988C261.755 43.6216 261.512 44.4372 261.52 45.3173C261.52 45.9328 261.634 46.5194 261.869 47.0705C262.219 47.879 262.774 48.5158 263.503 48.9666C264.202 49.396 264.969 49.6106 265.798 49.6106C266.041 49.6106 266.291 49.5892 266.55 49.5534C267.279 49.4461 267.948 49.1598 268.533 48.7018C269.224 48.1653 269.703 47.4569 269.961 46.5982C270.174 45.8969 270.204 45.16 270.06 44.4086C269.893 43.5857 269.513 42.8631 268.928 42.2763L268.935 42.2906ZM268.1 45.3317C268.1 45.8969 267.963 46.3692 267.689 46.7842C267.325 47.3496 266.854 47.6644 266.253 47.7645C265.41 47.9005 264.741 47.6858 264.21 47.099C263.852 46.7126 263.655 46.2404 263.586 45.6608C263.533 45.1742 263.586 44.7377 263.738 44.33C264.02 43.6 264.491 43.1493 265.159 42.9561C265.402 42.8845 265.638 42.8487 265.866 42.8487C266.345 42.8487 266.785 43.0062 267.18 43.321C267.651 43.6931 267.932 44.1868 268.046 44.8236C268.077 45.0168 268.092 45.1814 268.092 45.3317H268.1Z" fill="white"/>
<path d="M259.491 42.0694C258.481 41.2179 257.273 40.8888 255.897 41.0891C254.932 41.2322 254.112 41.6616 253.451 42.3771C252.987 42.8708 252.661 43.4648 252.471 44.1373C252.357 44.5453 252.304 44.9817 252.319 45.4682C252.326 45.8261 252.372 46.1481 252.448 46.4414C252.691 47.3502 253.17 48.1014 253.869 48.6667C254.636 49.2893 255.548 49.6113 256.574 49.6184C256.589 49.6184 256.604 49.6184 256.619 49.6184C257.326 49.6184 257.994 49.4682 258.602 49.1677C259.248 48.8457 259.78 48.3877 260.183 47.8081C260.699 47.0497 260.95 46.2267 260.935 45.275C260.942 44.767 260.844 44.2233 260.638 43.7009C260.38 43.0497 259.993 42.4988 259.491 42.0694ZM256.71 47.801C256.034 47.801 255.533 47.6078 255.115 47.207C254.78 46.885 254.552 46.4772 254.446 45.9978C254.309 45.4038 254.347 44.8314 254.56 44.3019C254.796 43.6937 255.191 43.2787 255.753 43.0283C256.019 42.9138 256.308 42.8565 256.604 42.8565C256.718 42.8565 256.832 42.8637 256.946 42.878C257.63 42.971 258.146 43.3216 258.526 43.9441C258.754 44.3234 258.876 44.7384 258.891 45.2106C258.906 45.7187 258.822 46.1552 258.625 46.5416C258.321 47.1426 257.888 47.5218 257.295 47.7079C257.06 47.7794 256.847 47.8081 256.718 47.801H256.71Z" fill="white"/>
<path d="M272.928 34.8016C272.928 33.9287 273.551 33.0414 274.736 33.0414C275.663 33.0414 276.218 33.6568 276.218 34.6871V38.9017H278.231V34.5512C278.231 32.4976 276.97 31.1738 275.017 31.1738C274.121 31.1738 273.308 31.4457 272.677 31.9538L272.495 31.3527H270.914V38.9017H272.928V34.8016Z" fill="white"/>
<path d="M257.984 31.1738C255.727 31.1738 253.957 32.9054 253.957 35.1236C253.957 37.3418 255.727 39.0734 257.984 39.0734C260.241 39.0734 262.011 37.3418 262.011 35.1236C262.011 32.9054 260.241 31.1738 257.984 31.1738ZM257.984 37.1987C256.837 37.1987 256.001 36.3258 256.001 35.1165C256.001 33.9072 256.837 33.0414 257.984 33.0414C259.131 33.0414 259.967 33.9144 259.967 35.1165C259.967 36.3186 259.131 37.1987 257.984 37.1987Z" fill="white"/>
<path d="M248.242 34.8016C248.242 33.9287 248.865 33.0414 250.051 33.0414C250.978 33.0414 251.532 33.6568 251.532 34.6871V38.9017H253.546V34.5512C253.546 32.4976 252.285 31.1738 250.332 31.1738C249.435 31.1738 248.622 31.4457 247.992 31.9538L247.809 31.3527H246.229V38.9017H248.242V34.8016Z" fill="white"/>
<path d="M266.478 31.1738C264.221 31.1738 262.451 32.9054 262.451 35.1236C262.451 37.3418 264.221 39.0734 266.478 39.0734C268.734 39.0734 270.504 37.3418 270.504 35.1236C270.504 32.9054 268.734 31.1738 266.478 31.1738ZM266.478 37.1987C265.33 37.1987 264.495 36.3258 264.495 35.1165C264.495 33.9072 265.33 33.0414 266.478 33.0414C267.625 33.0414 268.461 33.9144 268.461 35.1165C268.461 36.3186 267.625 37.1987 266.478 37.1987Z" fill="white"/>
</g>
</g>
<g opacity="0.7" clip-path="url(#clip3_20787_4763)">
<path d="M311.093 33.3171V47.3298C311.093 48.4234 311.724 49.4186 312.709 49.8743L340.17 62.5637C342.002 63.4094 344.086 62.057 344.086 60.0193V20.6276C344.086 18.5899 342.002 17.2375 340.17 18.0832L312.709 30.7763C311.724 31.232 311.093 32.2235 311.093 33.3207V33.3171Z" fill="#231F20"/>
<path d="M319.909 39.5157C319.407 39.5157 319 39.1038 319 38.5971V35.7282C319 35.0319 318.441 34.4669 317.752 34.4669C317.063 34.4669 316.504 35.0319 316.504 35.7282V38.5971C316.504 39.1038 316.097 39.5157 315.596 39.5157C315.094 39.5157 314.687 39.1038 314.687 38.5971V35.7282C314.687 34.0185 316.064 32.626 317.756 32.626C319.447 32.626 320.825 34.0185 320.825 35.7282V38.5971C320.825 39.1038 320.417 39.5157 319.916 39.5157H319.909Z" fill="white"/>
<path d="M326.008 39.5152C324.13 39.5152 322.597 37.9696 322.597 36.0667V32.6292C322.597 30.7299 324.126 29.1807 326.008 29.1807C327.891 29.1807 329.42 30.7263 329.42 32.6292V36.0667C329.42 37.9659 327.891 39.5152 326.008 39.5152ZM326.008 31.0252C325.132 31.0252 324.418 31.747 324.418 32.6328V36.0704C324.418 36.9562 325.132 37.678 326.008 37.678C326.885 37.678 327.599 36.9562 327.599 36.0704V32.6328C327.599 31.747 326.885 31.0252 326.008 31.0252Z" fill="white"/>
<path d="M337.797 39.3945C337.397 39.3945 337.051 39.1065 336.979 38.7056L335.486 30.4999L334.058 38.6983C333.986 39.1065 333.632 39.3945 333.221 39.3945C332.81 39.3872 332.467 39.0774 332.413 38.6655L330.913 27.3795C330.852 26.9201 331.173 26.4973 331.627 26.4353C332.081 26.3733 332.5 26.6978 332.561 27.1571L333.347 33.0735L334.645 25.6078C334.714 25.2068 335.06 24.9152 335.46 24.9116C335.861 24.9116 336.207 25.1995 336.279 25.6005L337.628 33.0261L338.749 23.9018C338.807 23.4425 339.222 23.1144 339.676 23.1727C340.131 23.2311 340.455 23.6503 340.397 24.1096L338.612 38.6582C338.562 39.0701 338.223 39.3836 337.812 39.3945C337.805 39.3945 337.794 39.3945 337.786 39.3945H337.797Z" fill="white"/>
<path d="M319.909 49.364C319.407 49.364 319 48.9521 319 48.4454V44.235C319 43.5387 318.441 42.9737 317.752 42.9737C317.063 42.9737 316.504 43.5387 316.504 44.235V47.1039C316.504 47.6106 316.097 48.0225 315.596 48.0225C315.094 48.0225 314.687 47.6106 314.687 47.1039V44.235C314.687 42.5253 316.064 41.1328 317.756 41.1328C319.447 41.1328 320.825 42.5253 320.825 44.235V48.4454C320.825 48.9521 320.417 49.364 319.916 49.364H319.909Z" fill="white"/>
<path d="M326.008 51.69C324.13 51.69 322.597 50.1444 322.597 48.2415V44.804C322.597 42.9047 324.126 41.3555 326.008 41.3555C327.891 41.3555 329.42 42.9011 329.42 44.804V48.2415C329.42 50.1408 327.891 51.69 326.008 51.69ZM326.008 43.2C325.132 43.2 324.418 43.9218 324.418 44.8076V48.2452C324.418 49.131 325.132 49.8528 326.008 49.8528C326.885 49.8528 327.599 49.131 327.599 48.2452V44.8076C327.599 43.9218 326.885 43.2 326.008 43.2Z" fill="white"/>
<path d="M337.8 57.2998C337.396 57.2998 337.05 57.0045 336.982 56.5999L335.395 47.1366L334.064 54.5767C333.992 54.985 333.632 55.2766 333.228 55.2657C332.82 55.2548 332.478 54.9485 332.423 54.5366L330.811 42.3721C330.75 41.9128 331.071 41.4899 331.525 41.428C331.98 41.366 332.398 41.6904 332.46 42.1497L333.368 49.0176L334.605 42.1096C334.677 41.7086 335.02 41.417 335.424 41.417C335.424 41.417 335.424 41.417 335.427 41.417C335.831 41.417 336.174 41.7159 336.242 42.1169L337.613 50.2934L338.489 41.9565C338.536 41.4936 338.947 41.1582 339.405 41.2092C339.863 41.2566 340.191 41.6722 340.144 42.1352L338.63 56.5452C338.586 56.9644 338.244 57.2852 337.829 57.2961C337.822 57.2961 337.811 57.2961 337.804 57.2961L337.8 57.2998Z" fill="white"/>
</g>
<defs>
<linearGradient id="paint0_linear_20787_4763" x1="35.4022" y1="38.0036" x2="-8.08984" y2="38.0036" gradientUnits="userSpaceOnUse">
<stop stop-color="#4659D9"/>
<stop offset="1" stop-color="#5523DD"/>
</linearGradient>
<clipPath id="clip0_20787_4763">
<rect width="60.1576" height="17.546" fill="white" transform="translate(143.919 32.5869)"/>
</clipPath>
<clipPath id="clip1_20787_4763">
<rect width="33.7431" height="9.84175" fill="white" transform="translate(245.727 35.9854)"/>
</clipPath>
<clipPath id="clip2_20787_4763">
<rect width="32.5929" height="18.4693" fill="white" transform="translate(246.157 31.1738)"/>
</clipPath>
<clipPath id="clip3_20787_4763">
<rect width="32.9933" height="44.9909" fill="white" transform="translate(311.093 17.8281)"/>
</clipPath>
</defs>
</svg>
