<svg preserveAspectRatio="none" width="100%" height="100%" overflow="visible" style="display: block;" viewBox="0 0 13.0003 12.3308" fill="none" xmlns="http://www.w3.org/2000/svg">
<g id="Vector">
<path d="M4.85261 7.00333C4.65761 6.80833 4.34094 6.80833 4.14594 7.00333C3.95094 7.19833 3.95094 7.515 4.14594 7.71083L5.28844 8.85333C5.38594 8.95083 5.51427 9 5.64177 9C5.76927 9 5.89761 8.95083 5.99511 8.85333L8.85261 5.99583C9.04761 5.80083 9.04761 5.48417 8.85261 5.28833C8.65761 5.09333 8.34094 5.09333 8.14511 5.28833L5.64177 7.79167L4.85261 7.0025V7.00333Z" fill="#8A8A8A"/>
<path d="M12.7634 3.70083C12.7634 3.70083 12.7634 3.6975 12.7634 3.69583C12.6001 2.6175 11.7309 1.76083 10.6493 1.6125C10.3226 1.56833 9.99427 1.53 9.66677 1.49667V0.5C9.66677 0.224167 9.4426 0 9.16677 0C8.89094 0 8.66677 0.224167 8.66677 0.5V3.16667C8.66677 3.4425 8.89094 3.66667 9.16677 3.66667C9.4426 3.66667 9.66677 3.4425 9.66677 3.16667V2.5025C9.95011 2.5325 10.2326 2.56583 10.5143 2.60333C11.1593 2.69167 11.6776 3.2025 11.7751 3.84583C12.0751 5.82667 12.0751 7.835 11.7751 9.815C11.6776 10.4583 11.1593 10.9692 10.5159 11.0575L10.4834 11.0617C7.84011 11.4192 5.15927 11.4225 2.51511 11.0708L2.49011 11.0675C1.84344 10.98 1.32344 10.4692 1.22594 9.82417L1.22427 9.81083C0.925105 7.83333 0.925939 5.8275 1.22594 3.845C1.31594 3.25333 1.76177 2.77417 2.33344 2.6325V1.61417C1.26094 1.76917 0.400105 2.62167 0.236772 3.69917C-0.0782282 5.77583 -0.0790616 7.8825 0.235105 9.95917L0.236772 9.9725C0.400105 11.0542 1.27177 11.9117 2.35677 12.0575L2.3826 12.0608C3.73677 12.2408 5.10094 12.3308 6.46427 12.3308C7.82761 12.3308 9.23927 12.2375 10.6168 12.0517L10.6501 12.0475C11.7309 11.8992 12.5993 11.0425 12.7634 9.96417C13.0793 7.88417 13.0793 5.775 12.7634 3.69917V3.70083Z" fill="#8A8A8A"/>
<path d="M3.83261 3.66667C4.10844 3.66667 4.33261 3.4425 4.33261 3.16667V2.415C5.05427 2.3625 5.77677 2.33333 6.50011 2.33333C6.88927 2.33333 7.27761 2.34167 7.66594 2.35667V1.35583C6.55511 1.31417 5.44261 1.33333 4.33261 1.41083V0.5C4.33261 0.224167 4.10844 0 3.83261 0C3.55677 0 3.33261 0.224167 3.33261 0.5V3.16667C3.33261 3.4425 3.55677 3.66667 3.83261 3.66667Z" fill="#8A8A8A"/>
</g>
</svg>
