<svg preserveAspectRatio="none" width="100%" height="100%" overflow="visible" style="display: block;" viewBox="0 0 349 238" fill="none" xmlns="http://www.w3.org/2000/svg">
<path id="Subtract" d="M326.472 0C334.357 0 338.301 -0.000448667 341.312 1.53418C343.962 2.88407 346.116 5.03823 347.466 7.6875C349 10.6994 349 14.6428 349 22.5283V103.156C342.373 103.156 337 108.529 337 115.156C337 121.784 342.373 127.156 349 127.156V215.472C349 223.357 349 227.301 347.466 230.312C346.116 232.962 343.962 235.116 341.312 236.466C338.301 238 334.357 238 326.472 238H22.5283C14.6428 238 10.6994 238 7.6875 236.466C5.03823 235.116 2.88407 232.962 1.53418 230.312C-0.000448667 227.301 0 223.357 0 215.472V127.114C0.329758 127.141 0.663221 127.156 1 127.156C7.62742 127.156 13 121.784 13 115.156C13 108.529 7.62742 103.156 1 103.156C0.663248 103.156 0.329732 103.17 0 103.197V22.5283C0 14.6428 -0.000448667 10.6994 1.53418 7.6875C2.88407 5.03823 5.03823 2.88407 7.6875 1.53418C10.6994 -0.000448667 14.6428 0 22.5283 0H326.472Z" fill="var(--fill-0, white)"/>
</svg>
