<svg preserveAspectRatio="none" width="100%" height="100%" overflow="visible" style="display: block;" viewBox="0 0 8.09808 8.08307" fill="none" xmlns="http://www.w3.org/2000/svg">
<g id="Group">
<path id="Vector" d="M1.80706 3.8241C1.45465 3.8241 1.13972 3.74162 0.869789 3.57666C0.599855 3.4117 0.389907 3.18676 0.232445 2.89433C0.0749829 2.6094 0 2.27948 0 1.91207C0 1.54465 0.0749841 1.19974 0.224948 0.914808C0.374911 0.629877 0.584859 0.404932 0.862292 0.239972C1.13973 0.0750115 1.44715 2.99345e-05 1.80706 2.99345e-05C2.16698 2.99345e-05 2.4744 0.0825099 2.74434 0.24747C3.01427 0.41243 3.22422 0.637375 3.37418 0.922306C3.52415 1.20724 3.59913 1.53716 3.59913 1.91207C3.59913 2.28697 3.52415 2.6094 3.37418 2.89433C3.22422 3.17926 3.01427 3.4117 2.74434 3.57666C2.4744 3.74162 2.16698 3.8241 1.80706 3.8241ZM0.547367 7.91811L6.05103 0.172488H7.51318L1.97952 7.91811H0.554867H0.547367ZM1.79957 2.84934C2.03201 2.84934 2.21197 2.75936 2.36193 2.5794C2.51189 2.39945 2.57938 2.1745 2.57938 1.91207C2.57938 1.64963 2.50439 1.42468 2.36193 1.24473C2.21946 1.06477 2.03201 0.982291 1.79957 0.982291C1.56712 0.982291 1.39466 1.07227 1.2597 1.24473C1.11723 1.42468 1.04975 1.64213 1.04975 1.91207C1.04975 2.182 1.11723 2.39945 1.2597 2.5794C1.40216 2.75936 1.58212 2.84934 1.79957 2.84934ZM6.29098 8.08307C5.94606 8.08307 5.63863 8.00059 5.3687 7.83563C5.09876 7.67067 4.88882 7.44573 4.73136 7.1533C4.57389 6.86837 4.49891 6.53844 4.49891 6.17103C4.49891 5.80362 4.57389 5.4662 4.72386 5.17378C4.87382 4.88884 5.08377 4.6639 5.3612 4.49894C5.63864 4.33398 5.94606 4.259 6.30597 4.259C6.66589 4.259 6.95832 4.34148 7.22825 4.50644C7.49819 4.6714 7.70813 4.89634 7.8656 5.18127C8.02306 5.4662 8.09804 5.79612 8.09804 6.17103C8.09804 6.54594 8.02306 6.86837 7.8656 7.1533C7.70813 7.43823 7.49819 7.67067 7.22825 7.83563C6.95832 8.00059 6.65089 8.08307 6.29098 8.08307ZM6.29098 7.1158C6.52342 7.1158 6.70338 7.02583 6.84584 6.84587C6.98831 6.66591 7.05579 6.44097 7.05579 6.17853C7.05579 5.9161 6.98831 5.69115 6.84584 5.51119C6.70338 5.33124 6.52342 5.24126 6.29098 5.24126C6.05853 5.24126 5.88607 5.33124 5.74361 5.51119C5.60114 5.69115 5.52616 5.9161 5.52616 6.17853C5.52616 6.44097 5.59365 6.66591 5.74361 6.84587C5.89357 7.02583 6.07353 7.1158 6.29098 7.1158Z" fill="var(--fill-0, #FBF5AD)"/>
</g>
</svg>
