<svg preserveAspectRatio="none" width="100%" height="100%" overflow="visible" style="display: block;" viewBox="0 0 349 3.52" fill="none" xmlns="http://www.w3.org/2000/svg">
<path id="Vector" d="M3.63542 1.76L0 3.52V0H349V3.52L345.365 1.76C343.932 1.06668 343.216 0.720013 342.432 0.615033C341.967 0.55287 341.491 0.55287 341.026 0.615033C340.242 0.720013 339.526 1.06668 338.094 1.76C336.662 2.45332 335.946 2.79999 335.161 2.90497C334.696 2.96713 334.22 2.96713 333.756 2.90497C332.971 2.79999 332.255 2.45332 330.823 1.76C329.391 1.06668 328.675 0.720013 327.89 0.615033C327.426 0.55287 326.949 0.55287 326.485 0.615033C325.7 0.720013 324.984 1.06668 323.552 1.76C322.12 2.45332 321.404 2.79999 320.619 2.90497C320.155 2.96713 319.679 2.96713 319.214 2.90497C318.429 2.79999 317.713 2.45332 316.281 1.76C314.849 1.06668 314.133 0.720013 313.349 0.615033C312.884 0.55287 312.408 0.55287 311.943 0.615033C311.159 0.720013 310.443 1.06668 309.01 1.76C307.578 2.45332 306.862 2.79999 306.078 2.90497C305.613 2.96713 305.137 2.96713 304.672 2.90497C303.888 2.79999 303.172 2.45332 301.74 1.76C300.307 1.06668 299.591 0.720013 298.807 0.615033C298.342 0.55287 297.866 0.55287 297.401 0.615033C296.617 0.720013 295.901 1.06668 294.469 1.76C293.037 2.45332 292.321 2.79999 291.536 2.90497C291.072 2.96713 290.595 2.96713 290.131 2.90497C289.346 2.79999 288.63 2.45332 287.198 1.76C285.766 1.06668 285.05 0.720013 284.265 0.615033C283.801 0.55287 283.324 0.55287 282.86 0.615033C282.075 0.720013 281.359 1.06668 279.927 1.76C278.495 2.45332 277.779 2.79999 276.994 2.90497C276.53 2.96713 276.054 2.96713 275.589 2.90497C274.804 2.79999 274.088 2.45332 272.656 1.76C271.224 1.06668 270.508 0.720013 269.724 0.615033C269.259 0.55287 268.783 0.55287 268.318 0.615033C267.534 0.720013 266.818 1.06668 265.385 1.76C263.953 2.45332 263.237 2.79999 262.453 2.90497C261.988 2.96713 261.512 2.96713 261.047 2.90497C260.263 2.79999 259.547 2.45332 258.115 1.76C256.682 1.06667 255.966 0.720011 255.182 0.615032C254.717 0.552869 254.241 0.552869 253.776 0.615032C252.992 0.72001 252.276 1.06667 250.844 1.76C249.412 2.45333 248.696 2.79999 247.911 2.90497C247.446 2.96713 246.97 2.96713 246.506 2.90497C245.721 2.79999 245.005 2.45332 243.573 1.76C242.141 1.06668 241.425 0.720015 240.64 0.615035C240.176 0.55287 239.699 0.552871 239.235 0.615036C238.45 0.720017 237.734 1.06668 236.302 1.76C234.87 2.45332 234.154 2.79998 233.369 2.90496C232.905 2.96713 232.429 2.96713 231.964 2.90496C231.179 2.79998 230.463 2.45332 229.031 1.76C227.599 1.06668 226.883 0.720013 226.099 0.615033C225.634 0.55287 225.158 0.55287 224.693 0.615033C223.909 0.720013 223.193 1.06668 221.76 1.76C220.328 2.45332 219.612 2.79999 218.828 2.90497C218.363 2.96713 217.887 2.96713 217.422 2.90497C216.638 2.79999 215.922 2.45332 214.49 1.76C213.057 1.06668 212.341 0.720013 211.557 0.615033C211.092 0.55287 210.616 0.55287 210.151 0.615033C209.367 0.720013 208.651 1.06668 207.219 1.76C205.787 2.45332 205.071 2.79999 204.286 2.90497C203.821 2.96713 203.345 2.96713 202.881 2.90497C202.096 2.79999 201.38 2.45332 199.948 1.76C198.516 1.06668 197.8 0.720013 197.015 0.615033C196.551 0.55287 196.074 0.55287 195.61 0.615033C194.825 0.720013 194.109 1.06668 192.677 1.76C191.245 2.45332 190.529 2.79999 189.744 2.90497C189.28 2.96713 188.804 2.96713 188.339 2.90497C187.554 2.79999 186.838 2.45332 185.406 1.76C183.974 1.06668 183.258 0.720013 182.474 0.615033C182.009 0.55287 181.533 0.55287 181.068 0.615033C180.284 0.720013 179.568 1.06668 178.135 1.76C176.703 2.45332 175.987 2.79999 175.203 2.90497C174.738 2.96713 174.262 2.96713 173.797 2.90497C173.013 2.79999 172.297 2.45332 170.865 1.76C169.432 1.06668 168.716 0.720013 167.932 0.615033C167.467 0.55287 166.991 0.55287 166.526 0.615033C165.742 0.720013 165.026 1.06668 163.594 1.76C162.162 2.45332 161.446 2.79999 160.661 2.90497C160.196 2.96713 159.72 2.96713 159.256 2.90497C158.471 2.79999 157.755 2.45332 156.323 1.76C154.891 1.06668 154.175 0.720013 153.39 0.615033C152.926 0.55287 152.449 0.55287 151.985 0.615033C151.2 0.720013 150.484 1.06668 149.052 1.76C147.62 2.45332 146.904 2.79999 146.119 2.90497C145.655 2.96713 145.179 2.96713 144.714 2.90497C143.929 2.79999 143.213 2.45332 141.781 1.76C140.349 1.06668 139.633 0.720013 138.849 0.615033C138.384 0.55287 137.908 0.55287 137.443 0.615033C136.659 0.720013 135.943 1.06668 134.51 1.76C133.078 2.45332 132.362 2.79999 131.578 2.90497C131.113 2.96713 130.637 2.96713 130.172 2.90497C129.388 2.79999 128.672 2.45332 127.24 1.76C125.808 1.06672 125.091 0.72001 124.307 0.615034C123.842 0.55287 123.366 0.55287 122.901 0.615034C122.117 0.720014 121.401 1.06668 119.969 1.76C118.537 2.45332 117.821 2.79999 117.036 2.90497C116.571 2.96713 116.095 2.96713 115.631 2.90497C114.846 2.79999 114.13 2.45332 112.698 1.76C111.266 1.06668 110.55 0.720013 109.765 0.615033C109.301 0.55287 108.824 0.55287 108.36 0.615033C107.575 0.720013 106.859 1.06668 105.427 1.76C103.995 2.45332 103.279 2.79999 102.494 2.90497C102.03 2.96713 101.554 2.96713 101.089 2.90497C100.304 2.79999 99.5884 2.45332 98.1562 1.76C96.7241 1.06668 96.0081 0.720013 95.2235 0.615033C94.759 0.55287 94.2827 0.55287 93.8181 0.615033C93.0336 0.720013 92.3175 1.06668 90.8854 1.76C89.4533 2.45332 88.7372 2.79999 87.9527 2.90497C87.4881 2.96713 87.0119 2.96713 86.5473 2.90497C85.7628 2.79999 85.0467 2.45332 83.6146 1.76C82.1825 1.06668 81.4664 0.720013 80.6819 0.615033C80.2173 0.55287 79.741 0.55287 79.2765 0.615033C78.4919 0.720013 77.7759 1.06668 76.3437 1.76C74.9116 2.45332 74.1956 2.79999 73.411 2.90497C72.9465 2.96713 72.4702 2.96713 72.0056 2.90497C71.2211 2.79999 70.505 2.45332 69.0729 1.76C67.6408 1.06668 66.9247 0.720013 66.1402 0.615033C65.6756 0.55287 65.1994 0.55287 64.7348 0.615033C63.9503 0.720011 63.2342 1.06668 61.8021 1.76C60.37 2.45332 59.6539 2.79999 58.8694 2.90497C58.4048 2.96713 57.9285 2.96713 57.464 2.90497C56.6794 2.79999 55.9633 2.45332 54.5312 1.76C53.0992 1.06668 52.3831 0.720011 51.5985 0.615033C51.134 0.55287 50.6577 0.55287 50.1931 0.615033C49.4086 0.720011 48.6925 1.06668 47.2604 1.76C45.8283 2.45332 45.1122 2.79999 44.3277 2.90497C43.8631 2.96713 43.3869 2.96713 42.9223 2.90497C42.1378 2.79999 41.4217 2.45332 39.9896 1.76C38.5575 1.06668 37.8414 0.720011 37.0569 0.615033C36.5923 0.55287 36.116 0.55287 35.6515 0.615033C34.8669 0.720011 34.1508 1.06668 32.7187 1.76C31.2866 2.45332 30.5706 2.79999 29.786 2.90497C29.3215 2.96713 28.8452 2.96713 28.3806 2.90497C27.5961 2.79999 26.88 2.45332 25.4479 1.76C24.0158 1.06668 23.2997 0.720013 22.5152 0.615033C22.0506 0.55287 21.5744 0.55287 21.1098 0.615033C20.3253 0.720013 19.6092 1.06668 18.1771 1.76C16.745 2.45332 16.0289 2.79999 15.2444 2.90497C14.7798 2.96713 14.3035 2.96713 13.839 2.90497C13.0544 2.79999 12.3384 2.45332 10.9062 1.76C9.47413 1.06668 8.75807 0.720013 7.97354 0.615033C7.50898 0.55287 7.03269 0.55287 6.56813 0.615033C5.78359 0.720013 5.06753 1.06668 3.63542 1.76Z" fill="var(--fill-0, white)"/>
</svg>
