<svg preserveAspectRatio="none" width="100%" height="100%" overflow="visible" style="display: block;" viewBox="0 0 33.7431 9.84175" fill="none" xmlns="http://www.w3.org/2000/svg">
<g id="noon Food logo - English" clip-path="url(#clip0_0_540)">
<rect width="33.7431" height="9.84175" fill="#FFE600"/>
<path id="Vector" d="M27.96 4.47986C27.96 3.55556 28.6196 2.61609 29.8747 2.61609C30.8562 2.61609 31.4434 3.26765 31.4434 4.35864V8.8211H33.5753V4.2147C33.5753 2.04029 32.2398 0.638672 30.1723 0.638672C29.2231 0.638672 28.3622 0.926572 27.6945 1.46449L27.5015 0.828081H25.8281V8.8211H27.96V4.47986Z" fill="var(--fill-0, #171717)"/>
<path id="Vector_2" d="M12.1387 0.638672C9.74944 0.638672 7.875 2.47214 7.875 4.8208C7.875 7.16946 9.74944 9.00294 12.1387 9.00294C14.5281 9.00294 16.4025 7.16946 16.4025 4.8208C16.4025 2.47214 14.5281 0.638672 12.1387 0.638672ZM12.1387 7.01793C10.924 7.01793 10.039 6.09363 10.039 4.81322C10.039 3.53283 10.924 2.61609 12.1387 2.61609C13.3535 2.61609 14.2385 3.5404 14.2385 4.81322C14.2385 6.08605 13.3535 7.01793 12.1387 7.01793Z" fill="var(--fill-0, #171717)"/>
<path id="Vector_3" d="M1.82718 4.47986C1.82718 3.55556 2.48685 2.61609 3.74183 2.61609C4.7233 2.61609 5.31056 3.26765 5.31056 4.35864V8.8211H7.44243V4.2147C7.44243 2.04029 6.107 0.638672 4.03949 0.638672C3.0902 0.638672 2.22941 0.926572 1.56171 1.46449L1.36863 0.828081H-0.304688V8.8211H1.82718V4.47986Z" fill="var(--fill-0, #171717)"/>
<path id="Vector_4" d="M21.131 0.638672C18.7417 0.638672 16.8672 2.47214 16.8672 4.8208C16.8672 7.16946 18.7417 9.00294 21.131 9.00294C23.5203 9.00294 25.3947 7.16946 25.3947 4.8208C25.3947 2.47214 23.5203 0.638672 21.131 0.638672ZM21.131 7.01793C19.9163 7.01793 19.0313 6.09363 19.0313 4.81322C19.0313 3.53283 19.9163 2.61609 21.131 2.61609C22.3458 2.61609 23.2307 3.5404 23.2307 4.81322C23.2307 6.08605 22.3458 7.01793 21.131 7.01793Z" fill="var(--fill-0, #171717)"/>
</g>
<defs>
<clipPath id="clip0_0_540">
<rect width="33.7431" height="9.84175" fill="white"/>
</clipPath>
</defs>
</svg>
