<svg preserveAspectRatio="none" width="100%" height="100%" overflow="visible" style="display: block;" viewBox="0 0 19.7209 5.75193" fill="none" xmlns="http://www.w3.org/2000/svg">
<g id="noon Food logo - English" clip-path="url(#clip0_0_474)">
<path id="Vector" d="M16.3427 2.61983C16.3427 2.07963 16.7282 1.53056 17.4617 1.53056C18.0353 1.53056 18.3785 1.91136 18.3785 2.54898V5.15703H19.6244V2.46486C19.6244 1.19404 18.8439 0.374878 17.6356 0.374878C17.0808 0.374878 16.5777 0.543139 16.1875 0.857521L16.0747 0.485576H15.0967V5.15703H16.3427V2.61983Z" fill="var(--fill-0, #171717)"/>
<path id="Vector_2" d="M7.09457 0.374878C5.69816 0.374878 4.60266 1.44643 4.60266 2.81909C4.60266 4.19174 5.69816 5.2633 7.09457 5.2633C8.491 5.2633 9.58646 4.19174 9.58646 2.81909C9.58646 1.44643 8.491 0.374878 7.09457 0.374878ZM7.09457 4.10318C6.38461 4.10318 5.86742 3.56298 5.86742 2.81466C5.86742 2.06634 6.38461 1.53056 7.09457 1.53056C7.80454 1.53056 8.32174 2.07077 8.32174 2.81466C8.32174 3.55855 7.80454 4.10318 7.09457 4.10318Z" fill="var(--fill-0, #171717)"/>
<path id="Vector_3" d="M1.06687 2.61983C1.06687 2.07963 1.45241 1.53056 2.18588 1.53056C2.75949 1.53056 3.10271 1.91136 3.10271 2.54898V5.15703H4.34866V2.46486C4.34866 1.19404 3.56818 0.374878 2.35984 0.374878C1.80504 0.374878 1.30196 0.543139 0.911721 0.857521L0.798877 0.485576H-0.179077V5.15703H1.06687V2.61983Z" fill="var(--fill-0, #171717)"/>
<path id="Vector_4" d="M12.351 0.374878C10.9546 0.374878 9.85907 1.44643 9.85907 2.81909C9.85907 4.19174 10.9546 5.2633 12.351 5.2633C13.7474 5.2633 14.8429 4.19174 14.8429 2.81909C14.8429 1.44643 13.7474 0.374878 12.351 0.374878ZM12.351 4.10318C11.6411 4.10318 11.1239 3.56298 11.1239 2.81466C11.1239 2.06634 11.6411 1.53056 12.351 1.53056C13.061 1.53056 13.5782 2.07077 13.5782 2.81466C13.5782 3.55855 13.061 4.10318 12.351 4.10318Z" fill="var(--fill-0, #171717)"/>
</g>
<defs>
<clipPath id="clip0_0_474">
<rect width="19.7209" height="5.75193" fill="white"/>
</clipPath>
</defs>
</svg>
