<svg width="100%" height="100%" overflow="visible" style="display: block;" viewBox="0 0 27.7417 19.8571" fill="none" xmlns="http://www.w3.org/2000/svg">
<g id="Group 2147226608">
<path id="Vector" d="M16.4316 5.74715H24.0983C24.4716 5.74715 24.8183 5.89382 25.0716 6.17382L27.3783 8.62715C27.6316 8.89382 27.765 9.26715 27.7383 9.64049L27.4183 13.9738C27.365 14.6672 26.7916 15.2005 26.0983 15.2138L16.4316 15.3338V5.77382V5.74715Z" fill="url(#paint0_linear_0_620)"/>
<path id="Vector_2" d="M26.7914 9.17379L24.4714 6.72045C24.3781 6.61379 24.2314 6.54712 24.0848 6.54712H17.2314V10.9338H26.8315L26.9248 9.57379C26.9248 9.42712 26.8848 9.28045 26.7914 9.17379Z" fill="var(--fill-0, white)"/>
<path id="Vector_3" d="M17.6716 15.3071H1.3383C0.55163 15.3071 -0.0617033 14.6405 0.00496334 13.8671L1.11163 1.2267C1.16496 0.533362 1.75163 2.88226e-05 2.44496 2.88226e-05H18.7783C19.565 2.88226e-05 20.1783 0.666696 20.1116 1.44003L19.0183 14.0805C18.965 14.7738 18.3783 15.3071 17.685 15.3071H17.6716Z" fill="url(#paint1_linear_0_620)"/>
<path id="Vector_4" d="M5.16491 13.5871C6.69824 13.5871 7.93824 14.8271 7.93824 16.3471C7.93824 17.8671 6.69824 19.1071 5.16491 19.1071C3.63157 19.1071 2.39157 17.8671 2.39157 16.3471C2.39157 14.8271 3.63157 13.5871 5.16491 13.5871Z" fill="var(--fill-0, #8A8A8A)" stroke="var(--stroke-0, #2E2E2E)" stroke-width="1.5" stroke-linejoin="round"/>
<path id="Vector_5" d="M20.2184 13.5871C21.7517 13.5871 22.9917 14.8271 22.9917 16.3471C22.9917 17.8671 21.7517 19.1071 20.2184 19.1071C18.6851 19.1071 17.4451 17.8671 17.4451 16.3471C17.4451 14.8271 18.6851 13.5871 20.2184 13.5871Z" fill="var(--fill-0, #8A8A8A)" stroke="var(--stroke-0, #2E2E2E)" stroke-width="1.5" stroke-linejoin="round"/>
<path id="Vector_6" d="M10.4849 6.53382L10.9116 2.25382L7.05827 8.24049H9.6316L9.20494 12.5205L13.0583 6.53382H10.4849Z" fill="var(--fill-0, #FEFDC8)"/>
</g>
<defs>
<linearGradient id="paint0_linear_0_620" x1="22.0867" y1="5.74715" x2="22.0867" y2="40.9644" gradientUnits="userSpaceOnUse">
<stop stop-color="#3D3D3D"/>
<stop offset="1"/>
</linearGradient>
<linearGradient id="paint1_linear_0_620" x1="10.0583" y1="-0.519516" x2="10.0583" y2="57.6207" gradientUnits="userSpaceOnUse">
<stop stop-color="#3D3D3D"/>
<stop offset="1"/>
</linearGradient>
</defs>
</svg>
