<svg preserveAspectRatio="none" width="100%" height="100%" overflow="visible" style="display: block;" viewBox="0 0 32.9933 44.9909" fill="none" xmlns="http://www.w3.org/2000/svg">
<g id="Layer_1" opacity="0.7" clip-path="url(#clip0_0_531)">
<path id="Vector" d="M8.63821e-07 15.4887V29.5014C8.63821e-07 30.595 0.631089 31.5902 1.61559 32.0459L29.0769 44.7353C30.9089 45.5811 32.9933 44.2286 32.9933 42.1909V2.79929C32.9933 0.761538 30.9089 -0.590885 29.0769 0.254835L1.61559 12.9479C0.631089 13.4036 8.63821e-07 14.3951 8.63821e-07 15.4924V15.4887Z" fill="var(--fill-0, #231F20)"/>
<g id="Group">
<path id="Vector_2" d="M8.81556 21.6876C8.31429 21.6876 7.90679 21.2756 7.90679 20.7689V17.9C7.90679 17.2038 7.34782 16.6388 6.65904 16.6388C5.97025 16.6388 5.41128 17.2038 5.41128 17.9V20.7689C5.41128 21.2756 5.00378 21.6876 4.50252 21.6876C4.00125 21.6876 3.59375 21.2756 3.59375 20.7689V17.9C3.59375 16.1904 4.97133 14.7979 6.66264 14.7979C8.35396 14.7979 9.73154 16.1904 9.73154 17.9V20.7689C9.73154 21.2756 9.32403 21.6876 8.82277 21.6876H8.81556Z" fill="var(--fill-0, white)"/>
<path id="Vector_3" d="M14.9154 21.6871C13.0366 21.6871 11.5039 20.1415 11.5039 18.2386V14.801C11.5039 12.9018 13.0329 11.3525 14.9154 11.3525C16.7978 11.3525 18.3269 12.8982 18.3269 14.801V18.2386C18.3269 20.1378 16.7978 21.6871 14.9154 21.6871ZM14.9154 13.1971C14.0391 13.1971 13.325 13.9189 13.325 14.8047V18.2422C13.325 19.1281 14.0391 19.8498 14.9154 19.8498C15.7917 19.8498 16.5057 19.1281 16.5057 18.2422V14.8047C16.5057 13.9189 15.7917 13.1971 14.9154 13.1971Z" fill="var(--fill-0, white)"/>
<path id="Vector_4" d="M26.7043 21.5664C26.304 21.5664 25.9578 21.2784 25.8857 20.8774L24.3927 12.6718L22.9646 20.8701C22.8925 21.2784 22.5391 21.5664 22.128 21.5664C21.7169 21.5591 21.3743 21.2493 21.3202 20.8373L19.82 9.55134C19.7587 9.09202 20.0797 8.66916 20.534 8.60719C20.9884 8.54522 21.4067 8.86966 21.4681 9.32897L22.2542 15.2454L23.5524 7.7797C23.621 7.37871 23.9672 7.08708 24.3675 7.08344C24.7677 7.08344 25.1139 7.37142 25.1861 7.77241L26.5348 15.198L27.6563 6.07368C27.714 5.61436 28.1287 5.28628 28.5831 5.34461C29.0375 5.40293 29.3621 5.82215 29.3044 6.28146L27.5193 20.83C27.4688 21.242 27.1298 21.5555 26.7187 21.5664C26.7115 21.5664 26.7007 21.5664 26.6935 21.5664H26.7043Z" fill="var(--fill-0, white)"/>
<path id="Vector_5" d="M8.81555 31.5358C8.31429 31.5358 7.90678 31.1239 7.90678 30.6172V26.4068C7.90678 25.7105 7.34782 25.1455 6.65903 25.1455C5.97024 25.1455 5.41128 25.7105 5.41128 26.4068V29.2757C5.41128 29.7824 5.00378 30.1943 4.50251 30.1943C4.00125 30.1943 3.59374 29.7824 3.59374 29.2757V26.4068C3.59374 24.6971 4.97132 23.3046 6.66264 23.3046C8.35395 23.3046 9.73153 24.6971 9.73153 26.4068V30.6172C9.73153 31.1239 9.32403 31.5358 8.82276 31.5358H8.81555Z" fill="var(--fill-0, white)"/>
<path id="Vector_6" d="M14.9154 33.8619C13.0366 33.8619 11.5039 32.3163 11.5039 30.4134V26.9758C11.5039 25.0766 13.0329 23.5273 14.9154 23.5273C16.7978 23.5273 18.3269 25.073 18.3269 26.9758V30.4134C18.3269 32.3126 16.7978 33.8619 14.9154 33.8619ZM14.9154 25.3719C14.0391 25.3719 13.325 26.0937 13.325 26.9795V30.417C13.325 31.3029 14.0391 32.0246 14.9154 32.0246C15.7917 32.0246 16.5057 31.3029 16.5057 30.417V26.9795C16.5057 26.0937 15.7917 25.3719 14.9154 25.3719Z" fill="var(--fill-0, white)"/>
<path id="Vector_7" d="M26.7073 39.4717C26.3034 39.4717 25.9572 39.1764 25.8887 38.7718L24.3019 29.3084L22.9713 36.7486C22.8991 37.1569 22.5385 37.4485 22.1346 37.4376C21.7271 37.4266 21.3845 37.1204 21.3304 36.7085L19.7184 24.544C19.6571 24.0847 19.9781 23.6618 20.4325 23.5998C20.8869 23.5379 21.3052 23.8623 21.3665 24.3216L22.2753 31.1894L23.5122 24.2815C23.5843 23.8805 23.9269 23.5889 24.3308 23.5889C24.3308 23.5889 24.3308 23.5889 24.3344 23.5889C24.7383 23.5889 25.0809 23.8878 25.1494 24.2888L26.5198 32.4653L27.3961 24.1284C27.443 23.6654 27.8541 23.3301 28.3121 23.3811C28.7701 23.4285 29.0982 23.8441 29.0513 24.307L27.5367 38.7171C27.4935 39.1363 27.1509 39.4571 26.7361 39.468C26.7289 39.468 26.7181 39.468 26.7109 39.468L26.7073 39.4717Z" fill="var(--fill-0, white)"/>
</g>
</g>
<defs>
<clipPath id="clip0_0_531">
<rect width="32.9933" height="44.9909" fill="white"/>
</clipPath>
</defs>
</svg>
