<svg preserveAspectRatio="none" width="100%" height="100%" overflow="visible" style="display: block;" viewBox="0 0 18.6533 25.4363" fill="none" xmlns="http://www.w3.org/2000/svg">
<g id="Layer_1" clip-path="url(#clip0_0_465)">
<path id="Vector" d="M16.6445 0.587489C17.3485 0.26273 18.1638 0.778534 18.164 1.58163V23.8531C18.1637 24.6561 17.3485 25.1719 16.6445 24.8473L1.11911 17.6734C0.73762 17.4969 0.489222 17.1084 0.489222 16.6783V8.75839C0.489222 8.32657 0.737294 7.93999 1.11911 7.76327L1.11813 7.76229L16.6445 0.587489Z" stroke="var(--stroke-0, white)" stroke-width="0.978146"/>
<g id="Group">
<path id="Vector_2" d="M4.98489 12.2612C4.70149 12.2612 4.4711 12.0283 4.4711 11.7418V10.1198C4.4711 9.7262 4.15508 9.40675 3.76566 9.40675C3.37625 9.40675 3.06023 9.7262 3.06023 10.1198V11.7418C3.06023 12.0283 2.82984 12.2612 2.54644 12.2612C2.26304 12.2612 2.03265 12.0283 2.03265 11.7418V10.1198C2.03265 9.15325 2.81149 8.36597 3.7677 8.36597C4.72392 8.36597 5.50275 9.15325 5.50275 10.1198V11.7418C5.50275 12.0283 5.27237 12.2612 4.98897 12.2612H4.98489Z" fill="var(--fill-0, white)"/>
<path id="Vector_3" d="M8.43252 12.2618C7.37029 12.2618 6.50378 11.388 6.50378 10.3122V8.36867C6.50378 7.29491 7.36825 6.41901 8.43252 6.41901C9.4968 6.41901 10.3613 7.29285 10.3613 8.36867V10.3122C10.3613 11.3859 9.4968 12.2618 8.43252 12.2618ZM8.43252 7.46185C7.93709 7.46185 7.5334 7.86992 7.5334 8.37073V10.3142C7.5334 10.815 7.93709 11.2231 8.43252 11.2231C8.92796 11.2231 9.33165 10.815 9.33165 10.3142V8.37073C9.33165 7.86992 8.92796 7.46185 8.43252 7.46185Z" fill="var(--fill-0, white)"/>
<path id="Vector_4" d="M15.0994 12.1928C14.8731 12.1928 14.6774 12.0299 14.6366 11.8032L13.7926 7.16402L12.9852 11.7991C12.9444 12.0299 12.7446 12.1928 12.5122 12.1928C12.2797 12.1886 12.086 12.0135 12.0555 11.7806L11.2073 5.39984C11.1726 5.14016 11.3541 4.90109 11.611 4.86606C11.8679 4.83102 12.1044 5.01444 12.1391 5.27412L12.5835 8.61906L13.3175 4.39822C13.3562 4.17151 13.552 4.00664 13.7783 4.00457C14.0046 4.00457 14.2003 4.16739 14.2411 4.3941L15.0036 8.59227L15.6377 3.43369C15.6703 3.17401 15.9048 2.98852 16.1617 3.0215C16.4186 3.05447 16.6021 3.29148 16.5694 3.55116L15.5602 11.7764C15.5317 12.0093 15.34 12.1866 15.1076 12.1928C15.1035 12.1928 15.0974 12.1928 15.0933 12.1928H15.0994Z" fill="var(--fill-0, white)"/>
<path id="Vector_5" d="M4.98489 17.8287C4.70149 17.8287 4.4711 17.5958 4.4711 17.3093V14.9289C4.4711 14.5353 4.15508 14.2158 3.76566 14.2158C3.37625 14.2158 3.06023 14.5353 3.06023 14.9289V16.5509C3.06023 16.8374 2.82984 17.0703 2.54644 17.0703C2.26304 17.0703 2.03265 16.8374 2.03265 16.5509V14.9289C2.03265 13.9623 2.81149 13.175 3.7677 13.175C4.72392 13.175 5.50275 13.9623 5.50275 14.9289V17.3093C5.50275 17.5958 5.27237 17.8287 4.98897 17.8287H4.98489Z" fill="var(--fill-0, white)"/>
<path id="Vector_6" d="M8.43252 19.1448C7.37029 19.1448 6.50378 18.2709 6.50378 17.1951V15.2516C6.50378 14.1778 7.36825 13.3019 8.43252 13.3019C9.4968 13.3019 10.3613 14.1758 10.3613 15.2516V17.1951C10.3613 18.2688 9.4968 19.1448 8.43252 19.1448ZM8.43252 14.3448C7.93709 14.3448 7.5334 14.7529 7.5334 15.2537V17.1972C7.5334 17.698 7.93709 18.106 8.43252 18.106C8.92796 18.106 9.33165 17.698 9.33165 17.1972V15.2537C9.33165 14.7529 8.92796 14.3448 8.43252 14.3448Z" fill="var(--fill-0, white)"/>
<path id="Vector_7" d="M15.0996 22.3165C14.8713 22.3165 14.6755 22.1495 14.6368 21.9208L13.7397 16.5705L12.9874 20.7769C12.9466 21.0078 12.7427 21.1726 12.5144 21.1664C12.284 21.1603 12.0903 20.9871 12.0597 20.7543L11.1483 13.8768C11.1137 13.6172 11.2951 13.3781 11.552 13.3431C11.8089 13.308 12.0454 13.4914 12.0801 13.7511L12.5939 17.634L13.2932 13.7285C13.334 13.5017 13.5277 13.3369 13.756 13.3369C13.756 13.3369 13.756 13.3369 13.7581 13.3369C13.9864 13.3369 14.1801 13.5059 14.2188 13.7326L14.9936 18.3553L15.489 13.6419C15.5155 13.3801 15.748 13.1905 16.0069 13.2194C16.2658 13.2462 16.4514 13.4811 16.4249 13.7429L15.5685 21.8898C15.5441 22.1269 15.3504 22.3082 15.1159 22.3144C15.1118 22.3144 15.1057 22.3144 15.1017 22.3144L15.0996 22.3165Z" fill="var(--fill-0, white)"/>
</g>
</g>
<defs>
<clipPath id="clip0_0_465">
<rect width="18.6533" height="25.4363" fill="white"/>
</clipPath>
</defs>
</svg>
