<svg preserveAspectRatio="none" width="100%" height="100%" overflow="visible" style="display: block;" viewBox="0 0 385 789" fill="none" xmlns="http://www.w3.org/2000/svg">
<g id="lines" opacity="0.05" style="mix-blend-mode:lighten">
<path d="M372.855 470.981C377.557 458.692 381.53 446.143 384.925 433.236V445.883C382.435 454.238 379.694 462.431 376.627 470.494C341.197 563.831 269.256 637.175 210.567 690.623C206.644 694.199 202.822 697.678 199.076 701.059C159.673 736.853 129.876 763.934 112.726 788.935H110.111C126.959 764.357 156.605 737.308 195.957 701.449C199.201 698.49 202.495 695.499 205.865 692.411C264.73 638.671 336.897 564.937 372.83 470.981H372.855ZM369.737 222.145C375.218 268.375 376.425 309.533 373.408 347.961C370.013 391.135 361.414 429.79 347.131 466.072C310.469 559.28 238.755 633.079 180.393 686.949L177.073 690.005C131.988 731.619 99.6006 761.496 84.5386 788.935H87.1537C102.668 760.976 135.106 731.099 180.04 689.778L185.044 685.161C243.256 631.584 314.719 558.175 350.928 465.552C364.859 429.888 373.207 391.948 376.425 349.522C379.292 311.679 378.01 271.106 372.452 225.494C363.576 152.41 344.642 75.5872 324.802 0.0975318H323.671C342.957 74.4493 361.162 150.036 369.737 222.145ZM340.719 0.0975318C357.491 61.5751 373.936 124.158 384.925 185.018V174.549C373.634 117.006 357.793 58.0314 341.8 0.0975318H340.694H340.719ZM193.141 689.68L186.478 695.792C144.309 734.447 113.305 762.926 97.1867 788.935H99.7766C116.247 762.471 147.377 733.992 189.495 695.467L197.793 687.859C256.256 634.347 327.945 560.971 363.752 467.99C373.76 442.047 380.725 414.835 384.899 385.608V356.446C381.53 397.215 373.383 433.952 359.98 468.51C323.696 562.108 251.73 635.875 193.116 689.68H193.141ZM384.925 217.008V202.639C374.037 136.349 355.957 67.5245 337.576 0.0650212H336.47C355.957 72.4661 374.866 146.298 384.925 217.008ZM375.394 224.843C380.977 270.781 382.284 311.679 379.393 349.879C376.124 392.793 367.7 431.188 353.593 467.275C317.108 560.678 245.293 634.445 186.779 688.315L181.776 692.931C138.174 733.049 106.44 762.244 90.8249 788.935H93.4651C109.483 761.724 141.266 732.562 184.793 692.639L191.456 686.527C249.794 632.982 321.382 559.605 357.365 466.787C371.12 431.351 379.317 393.606 382.41 351.44C385.176 313.825 383.768 273.512 378.135 228.159C368.957 154.23 349.394 76.3999 329.077 0.0975318H327.945C347.709 75.3271 366.518 151.89 375.394 224.876V224.843ZM381.052 227.509C382.737 241.066 383.994 254.135 384.925 266.847V240.513C384.547 237.262 384.195 234.044 383.793 230.76C374.313 155.986 354.122 77.2127 333.326 0.0325106H332.22C352.462 76.1073 371.899 153.645 381.052 227.477V227.509ZM199.528 691.013L191.23 698.62C150.495 735.878 120.144 763.642 103.649 788.935H106.264C123.111 763.187 153.562 735.423 194.298 698.263C197.542 695.304 200.836 692.313 204.205 689.225C262.794 635.745 334.584 562.401 370.215 469.226C376.249 453.458 381.102 437.235 384.925 420.395V403.879C380.625 426.897 374.514 448.711 366.443 469.713C330.334 563.474 258.268 637.24 199.528 691.013ZM263.297 704.667C255.2 711.885 247.43 718.745 239.911 725.377C212.553 749.532 189.294 770.046 171.868 788.902H174.333C192.01 769.754 215.546 749.044 243.231 724.694C251.202 717.704 259.424 710.454 268.024 702.814C306.195 668.873 349.696 626.805 384.95 576.12V571.049C348.74 624.789 303.127 669.133 263.322 704.635L263.297 704.667ZM212.277 693.744C208.354 697.32 204.532 700.799 200.785 704.18C162.791 738.706 133.849 765.007 116.725 788.902H119.289C136.69 764.617 165.808 738.251 203.903 703.757C208.153 699.921 212.503 695.987 216.954 691.923C275.769 638.508 347.81 565.197 383.064 471.664C383.718 469.941 384.296 468.153 384.925 466.397V456.026C383.164 461.456 381.304 466.82 379.292 472.119C343.56 566.27 271.268 639.971 212.277 693.711V693.744ZM276.045 707.398C266.968 715.461 258.268 723.068 249.844 730.448C224.724 752.458 203.048 771.444 186.101 788.935H188.514C205.689 771.152 227.691 751.97 253.163 729.733C262.014 722.028 271.142 714.031 280.722 705.578C314.442 675.766 352.286 639.646 384.899 596.862V592.311C351.154 637.891 311.324 676.123 276.02 707.431L276.045 707.398ZM269.658 706.033C261.059 713.673 252.836 720.923 244.865 727.913C218.613 750.995 196.184 770.729 178.959 788.902H181.398C198.849 770.436 221.606 750.507 248.184 727.23C256.583 719.85 265.283 712.242 274.361 704.212C310.268 672.384 350.903 633.339 384.899 586.719V581.94C349.847 631.486 307.175 672.677 269.633 706.065L269.658 706.033ZM237.774 699.206C231.739 704.667 225.855 709.902 220.172 715.006C188.364 743.485 163.243 765.982 145.541 786.887C144.963 787.569 144.41 788.252 143.856 788.902H146.371C147.05 788.09 147.704 787.277 148.408 786.464C166.336 765.397 191.532 742.9 223.416 714.453C229.552 708.959 235.913 703.302 242.476 697.385C290.353 654.374 346.804 598.358 384.925 528.818V522.12C346.477 595.594 287.486 654.406 237.774 699.206ZM256.91 703.302C249.316 710.097 241.999 716.566 234.933 722.841C206.418 748.102 182.404 769.396 164.777 788.935H167.267C185.145 769.071 209.41 747.646 238.227 722.223C245.745 715.591 253.515 708.731 261.612 701.514C302.071 665.427 348.59 620.172 384.925 565.229V559.8C347.785 617.994 299.078 665.655 256.91 703.334V703.302ZM244.161 700.571C237.598 706.456 231.236 712.145 225.076 717.639C194.248 745.176 168.675 767.998 150.822 788.902H153.261C171.24 767.836 196.435 745.403 228.345 717.054C234.958 711.17 241.797 705.09 248.863 698.75C294.175 658.145 347.131 605.933 384.925 541.594V535.385C346.603 603.397 291.258 658.242 244.161 700.539V700.571ZM250.548 701.937C243.457 708.276 236.617 714.356 230.004 720.24C200.333 746.606 175.565 768.681 157.787 788.902H160.276C178.28 768.356 203.325 746.151 233.273 719.622C240.339 713.348 247.656 706.878 255.225 700.116C298.073 661.818 347.735 613.183 384.925 553.721V547.934C347.056 610.842 295.105 661.981 250.548 701.937ZM330.384 201.403C335.313 250.007 335.816 293.246 331.943 333.591C327.568 378.944 317.837 419.484 302.121 457.457C264.177 549.299 193.292 623.228 135.76 677.391C83.583 726.515 50.9193 758.538 42.7973 788.935H45.2113C54.0121 757.92 86.2987 726.384 140.386 675.635C249.643 573.097 286.254 504.857 305.918 456.872C321.231 419.582 330.686 379.789 334.86 335.282C338.582 295.586 337.978 252.998 333.025 205.109C326.11 138.463 311.324 68.9875 294.879 0.0975318H293.697C309.589 67.7521 323.721 135.894 330.384 201.436V201.403ZM324.802 198.185C329.655 247.178 330.057 290.775 326.059 331.413C321.558 377.123 311.626 417.956 295.684 456.221C257.564 547.869 186.779 621.798 129.373 675.993C76.5172 725.864 44.0043 757.92 37.1899 788.902H39.629C42.8225 775.801 50.3661 762.179 63.0142 746.444C79.3586 726.092 103.775 702.684 134.025 674.237C243.055 571.601 279.742 503.492 299.531 455.604C315.046 418.054 324.701 377.968 329.026 333.071C332.874 293.083 332.371 250.169 327.467 201.858C320.829 136.219 306.597 67.8821 290.63 0H289.423C304.812 66.5817 318.415 133.586 324.802 198.12V198.185ZM335.992 204.589C340.996 252.835 341.599 295.716 337.853 335.77C333.628 380.797 324.048 421.012 308.558 458.725C270.815 550.762 199.78 624.691 142.121 678.789C110.413 708.536 86.7262 731.164 70.432 751.32C59.1166 765.3 51.9754 777.459 48.4299 788.967H50.9696C60.9271 758.57 93.3646 727.002 146.773 677.001C256.256 574.527 292.767 506.19 312.355 458.139C327.442 421.11 336.746 381.61 340.795 337.428C344.39 298.025 343.686 255.761 338.657 208.23C331.491 140.608 316.127 70.0279 299.204 0.130042H298.022C314.392 68.825 329.102 138.073 335.992 204.622V204.589ZM341.599 207.678C346.678 255.533 347.383 298.122 343.762 337.883C339.688 382.552 330.284 422.475 314.995 459.96C277.428 552.193 206.292 626.089 148.508 680.154C96.3066 729.018 64.372 760.001 54.1882 788.967H56.7781C60.9271 777.686 68.2192 765.82 79.1575 752.523C96.8598 730.904 124.193 705.415 153.135 678.399C262.844 576.023 299.28 507.588 318.767 459.407C333.653 422.638 342.781 383.43 346.678 339.541C350.149 300.431 349.344 258.459 344.239 211.286C336.796 142.722 320.854 71.0357 303.454 0.130042H302.297C319.144 69.8328 334.433 140.186 341.574 207.71L341.599 207.678ZM313.663 191.487C318.39 241.326 318.591 285.638 314.342 326.959C309.539 373.449 299.254 414.933 282.86 453.816C265.761 494.389 241.672 533.857 209.184 574.495C184.441 605.478 155.046 636.883 116.649 673.327C64.0954 723.198 30.5516 756.587 26.3774 788.967H28.6908C33.9713 755.709 66.8111 723.133 121.276 671.572C229.879 568.773 266.716 500.858 286.682 453.198C302.649 415.063 312.657 374.36 317.259 328.747C321.357 288.109 321.055 244.48 316.303 195.389C310.142 131.831 297.017 65.8015 282.055 0.130042H280.848C295.256 64.501 307.779 129.132 313.688 191.52L313.663 191.487ZM319.245 194.901C324.023 244.317 324.349 288.239 320.201 329.235C315.549 375.335 305.44 416.493 289.272 455.051C272.274 495.689 248.209 535.19 215.722 575.86C190.954 606.876 161.483 638.281 123.011 674.725C94.9236 701.319 70.3566 724.987 54.2636 745.306C41.2132 761.821 33.9965 775.671 31.6831 789H34.1222C40.7354 756.424 73.7764 723.816 127.638 672.97C236.467 570.269 273.229 502.256 293.094 454.466C308.835 416.623 318.667 376.245 323.117 330.991C327.09 290.677 326.688 247.406 321.86 198.737C315.473 134.139 301.794 66.9393 286.305 0.130042H285.098C300.009 65.6064 313.059 131.44 319.195 194.934L319.245 194.901ZM218.689 695.174C214.238 699.206 209.888 703.172 205.638 707.008C168.977 740.202 140.738 765.787 123.438 788.967H126.003C143.605 765.365 171.994 739.746 208.782 706.553C213.509 702.294 218.387 697.905 223.366 693.386C279.867 642.215 348.489 572.739 384.95 484.538V475.533C349.143 568.871 277.353 641.922 218.664 695.207L218.689 695.174ZM384.925 137.13V129.88C374.59 86.6733 362.419 43.044 350.274 0.0650212H349.193C361.866 45.4823 374.464 91.5499 384.899 137.097L384.925 137.13ZM384.925 98.6697V93.1429C376.601 61.9977 367.625 30.8526 358.748 0.0650212H357.692C367.021 32.7057 376.35 65.7039 384.925 98.6697ZM361.917 0.0975318C369.686 27.0488 377.507 54.2927 384.925 81.5366V76.53C377.808 50.9441 370.34 25.3908 362.973 0.0975318H361.917ZM384.925 117.103V110.894C375.495 73.8966 364.984 36.7695 354.524 0.0975318H353.443C364.381 38.8177 375.319 78.0905 384.925 117.103ZM352.814 213.66C358.044 260.833 358.949 302.836 355.58 342.012C351.783 386.063 342.706 425.434 327.845 462.398C290.63 555.021 219.267 628.885 161.257 682.885C112.525 728.238 78.8054 759.643 66.0819 788.967H68.6719C73.1729 778.857 80.1381 768.258 89.9197 756.489C107.597 735.227 133.346 711.332 165.934 681.097C276.096 578.851 312.355 510.221 331.667 461.846C346.15 425.531 354.976 386.876 358.597 343.605C361.841 305.015 360.835 263.661 355.555 217.106C347.559 146.688 330.435 72.8888 312.053 0.0975318H310.897C328.725 71.7184 345.145 144.217 352.864 213.66H352.814ZM347.181 210.701C352.336 258.232 353.141 300.496 349.646 339.963C345.698 384.308 336.47 423.971 321.407 461.195C284.016 553.623 212.755 627.487 154.87 681.52C126.003 708.439 98.7457 733.894 81.1942 755.319C71.0858 767.673 64.1709 778.629 60.0973 788.967H62.7124C75.2096 758.245 109.608 726.222 159.547 679.732C269.482 577.421 305.843 508.889 325.23 460.61C339.914 424.068 348.891 385.121 352.638 341.556C355.982 302.706 355.102 261.06 349.897 214.212C342.177 144.705 325.657 71.946 307.754 0.0975318H306.597C323.947 70.7756 339.789 142.201 347.207 210.701H347.181ZM364.079 219.382C369.485 265.937 370.592 307.355 367.449 346.01C363.928 389.477 355.178 428.327 340.694 464.869C303.831 557.882 232.242 631.714 174.006 685.616L172.396 687.112C125.802 730.221 92.7611 760.846 78.3277 788.967H80.9428C95.854 760.261 128.995 729.701 175.363 686.884L178.683 683.828C236.768 630.186 308.131 556.777 344.516 464.316C358.623 428.457 367.122 390.257 370.491 347.571C373.483 309.501 372.276 268.668 366.82 222.73C358.245 150.524 339.914 74.6769 320.553 0.0975318H319.421C338.205 73.5715 355.831 148.151 364.104 219.382H364.079ZM384.925 159.4V150.914C373.911 100.88 360.006 50.0663 346.05 0.0975318H344.969C359.553 52.9598 373.961 106.635 384.925 159.4ZM320.703 716.989C308.332 727.75 296.564 737.763 285.198 747.451C267.747 762.309 251.629 776.028 237.548 788.935H239.861C254.269 775.736 270.765 761.724 288.668 746.574C300.436 736.593 312.632 726.254 325.431 715.136C348.062 695.499 367.625 677.098 384.925 659.185V655.967C366.443 675.473 345.371 695.467 320.703 716.989ZM333.452 719.72C320.175 731.229 307.578 741.86 295.382 752.133C279.893 765.202 265.484 777.394 252.56 788.935H254.848C268.125 777.101 282.96 764.617 298.902 751.19C311.475 740.624 324.5 729.668 338.205 717.834C355.429 702.944 370.893 688.77 384.95 674.953V672.027C369.636 687.339 352.663 703.074 333.477 719.687L333.452 719.72ZM327.065 718.354C314.241 729.506 302.046 739.811 290.278 749.825C273.807 763.772 258.569 776.711 245.041 788.967H247.329C261.184 776.451 276.85 763.219 293.773 748.914C305.943 738.641 318.541 727.978 331.818 716.501C351.708 699.271 369.234 683.015 384.95 667.183V664.127C368.027 681.52 348.992 699.368 327.09 718.354H327.065ZM344.566 719.232C359.226 706.586 372.603 694.459 384.925 682.625V679.797C371.296 693.094 356.385 706.748 339.814 721.053C326.11 732.887 313.084 743.843 300.487 754.441C285.953 766.665 272.399 778.076 260.103 788.935H262.391C275.039 777.751 289.045 766.048 304.032 753.498C317.007 742.64 330.435 731.391 344.566 719.2V719.232ZM308.08 188.009C312.732 238.303 312.858 283.005 308.458 324.683C303.504 371.596 293.018 413.437 276.372 452.613C259.173 493.121 235.058 532.556 202.596 573.195C177.903 604.112 148.533 635.517 110.237 671.994C57.105 722.581 23.712 756.002 21.0718 789H23.3097C25.0196 774.013 32.4375 758.765 46.7703 740.527C62.9136 719.98 87.1537 696.54 114.864 670.239C223.24 567.343 260.153 499.558 280.219 451.995C296.438 413.567 306.622 372.507 311.374 326.504C315.599 285.508 315.373 241.521 310.696 192.008C304.786 129.522 292.189 64.6961 277.705 0.162553H276.473C290.403 63.3632 302.398 126.759 308.08 188.074V188.009ZM368.479 782.66C365.789 784.806 363.149 786.887 360.508 788.967H362.696C365.814 786.497 368.957 784.026 372.151 781.49C376.375 778.174 380.625 774.793 384.925 771.379V769.559C379.393 773.98 373.886 778.336 368.479 782.628V782.66ZM307.93 714.291C296.463 724.304 285.575 733.667 275.014 742.737C255.552 759.448 237.774 774.695 222.637 788.967H224.975C240.389 774.403 258.544 758.895 278.434 741.892C289.397 732.529 300.713 722.841 312.632 712.438C340.996 687.664 364.582 664.939 384.899 642.637V639.126C363.501 663.151 338.456 687.534 307.904 714.291H307.93ZM314.316 715.656C302.398 726.059 291.057 735.748 280.094 745.111C261.637 760.878 244.714 775.378 230.08 788.967H232.393C247.329 775.085 264.654 760.326 283.539 744.233C294.904 734.545 306.672 724.531 319.019 713.77C344.466 691.631 366.066 671.051 384.899 650.992V647.644C364.934 669.361 341.851 691.566 314.291 715.623L314.316 715.656ZM384.925 788.967V788.447C384.698 788.61 384.472 788.805 384.246 788.967H384.925ZM0.0251453 183.978V193.893C3.54549 181.052 6.76409 168.08 9.6558 154.978C20.7952 104.327 27.0564 52.5046 28.3891 0.0975318H26.7295C25.095 52.4721 18.5572 104.359 7.09098 155.173C4.90334 164.861 2.53968 174.452 0 184.01L0.0251453 183.978ZM245.192 295.554C238.528 348.416 225.604 395.362 205.638 439.056C165.456 527.095 99.3994 598.585 40.0816 656.909C24.2401 672.482 10.8879 686.136 0.0251453 698.458V701.676C11.6926 688.12 26.5535 672.937 44.6832 655.154C103.875 597.122 169.756 525.989 209.511 438.276C268.904 307.388 258.469 155.173 230.08 0.0975318H228.747C237.246 47.6606 244.01 95.061 247.556 141.584C251.881 198.315 251.101 248.674 245.192 295.554ZM225.025 696.507C220.022 701.026 215.168 705.415 210.441 709.674C178.607 738.381 153.462 761.073 135.835 781.978C133.823 784.351 131.988 786.659 130.202 788.935H132.742C134.603 786.529 136.564 784.091 138.676 781.588C156.504 760.521 181.7 737.861 213.609 709.186C218.815 704.505 224.196 699.661 229.702 694.687C283.111 646.441 347.332 581.875 384.925 500.566V492.536C347.584 578.494 280.471 646.278 225.025 696.507ZM352.638 788.935H354.826C358.799 785.781 362.822 782.563 366.921 779.312C372.83 774.63 378.839 769.851 384.899 765.007V763.154C377.582 769.038 370.34 774.825 363.249 780.482C359.653 783.343 356.108 786.172 352.613 788.967L352.638 788.935ZM378.915 786.887C378.035 787.569 377.18 788.252 376.325 788.935H378.487C379.87 787.862 381.228 786.789 382.611 785.716C383.366 785.131 384.145 784.514 384.899 783.928V782.205C382.913 783.766 380.876 785.359 378.89 786.919L378.915 786.887ZM236.089 696.052C286.657 650.505 346.829 590.393 384.925 515.196V507.913C346.754 587.337 283.891 650.44 231.412 697.873C225.88 702.847 220.524 707.691 215.319 712.372C183.511 740.982 158.39 763.577 140.688 784.448C139.406 785.976 138.174 787.472 136.992 788.935H139.531C140.814 787.309 142.146 785.684 143.555 784.058C161.433 762.991 186.629 740.429 218.513 711.852C224.196 706.748 230.055 701.514 236.115 696.052H236.089ZM373.71 784.741C371.924 786.139 370.164 787.537 368.429 788.902H370.592C372.83 787.147 375.093 785.359 377.381 783.538C379.87 781.588 382.41 779.572 384.925 777.589V775.833C381.153 778.824 377.406 781.783 373.71 784.708V784.741ZM334.282 463.601C297.243 556.419 225.78 630.251 167.644 684.218C119.591 728.823 85.8964 760.098 72.1671 788.935H74.7319C79.258 779.572 85.8461 769.754 94.823 758.993C112.5 737.763 138.174 713.998 170.661 683.926L172.271 682.43C282.659 580.282 318.843 511.522 338.054 463.049C352.361 426.962 361.011 388.534 364.507 345.555C367.625 307.225 366.518 266.132 361.162 219.902C352.864 148.573 335.162 73.7341 316.303 0.0325106H315.171C333.477 72.5962 350.501 146.135 358.472 216.488C363.802 263.336 364.808 305.047 361.539 343.962C357.868 387.722 348.967 426.832 334.307 463.569L334.282 463.601ZM358.975 725.149C344.265 737.731 330.259 749.305 316.73 760.488C304.711 770.436 293.32 779.864 282.734 788.902H284.997C295.96 779.539 307.779 769.786 320.301 759.48C334.232 748.004 348.615 736.138 363.752 723.264C370.692 717.314 377.783 711.072 384.975 704.602V702.099C376.174 710.162 367.474 717.834 359 725.117L358.975 725.149ZM365.361 726.515C350.224 739.421 335.816 751.288 321.885 762.764C310.821 771.899 300.285 780.58 290.428 788.902H292.666C302.926 780.222 313.889 771.217 325.456 761.756C339.764 750.02 354.574 737.861 370.114 724.629C374.992 720.468 379.946 716.144 384.95 711.722V709.316C378.336 715.266 371.774 720.988 365.361 726.515ZM352.613 723.784C338.029 736.3 324.199 747.842 310.796 759.025C298.198 769.526 286.305 779.442 275.341 788.935H277.378C289.02 778.889 301.694 768.388 315.171 757.237C328.7 746.053 342.68 734.48 357.365 721.931C366.342 714.193 375.596 706 384.975 697.418V694.882C374.892 704.277 364.18 713.9 352.638 723.816L352.613 723.784ZM288.844 710.129C278.786 719.005 269.206 727.327 259.927 735.39C236.969 755.319 216.904 772.777 200.634 788.902H203.023C219.544 772.485 239.962 754.799 263.297 734.61C273.003 726.222 283.036 717.542 293.546 708.276C322.966 682.398 355.505 651.708 384.95 616.011V611.947C354.222 650.18 319.798 682.82 288.819 710.129H288.844ZM264.956 737.828C243.08 756.749 223.793 773.46 207.927 788.902H210.315C226.459 773.167 246.097 756.229 268.376 737.016C278.51 728.303 288.97 719.265 299.959 709.642C334.458 679.374 361.891 652.098 384.975 625.049V621.278C355.932 656.097 324.098 686.104 295.231 711.495C284.72 720.76 274.662 729.441 264.956 737.828ZM282.457 708.764C272.902 717.217 263.749 725.214 254.898 732.919C230.859 753.889 209.989 772.094 193.368 788.902H195.781C212.654 771.802 233.851 753.368 258.268 732.171C267.546 724.109 277.127 715.786 287.185 706.911C318.742 679.082 353.895 645.726 384.975 606.55V602.259C352.688 644.068 315.599 679.472 282.483 708.731L282.457 708.764ZM371.748 727.88C356.183 741.112 341.373 753.271 327.04 765.04C316.932 773.33 307.251 781.295 298.123 788.935H300.361C309.891 780.937 320.024 772.68 330.611 763.999C345.321 751.97 360.534 739.551 376.501 725.994C379.292 723.621 382.108 721.15 384.95 718.712V716.404C380.499 720.338 376.073 724.174 371.748 727.88ZM358.12 778.271C353.593 781.88 349.193 785.424 344.843 788.902H347.031C351.833 785.066 356.737 781.132 361.766 777.134C369.36 771.087 377.104 764.91 384.975 758.57V756.652C375.847 764.064 366.895 771.217 358.12 778.239V778.271ZM347.735 773.915C341.373 779.052 335.187 784.058 329.177 788.935H331.39C337.827 783.701 344.491 778.337 351.356 772.842C362.269 764.064 373.483 755.059 384.975 745.631V743.615C372.176 754.214 359.804 764.194 347.735 773.948V773.915ZM342.555 771.704C335.263 777.621 328.197 783.343 321.407 788.902H323.62C330.862 782.985 338.406 776.906 346.201 770.599C358.748 760.456 371.648 750.052 385 738.966V736.885C370.34 749.142 356.234 760.618 342.58 771.672L342.555 771.704ZM352.915 776.093C347.483 780.45 342.177 784.709 336.998 788.902H339.185C344.818 784.351 350.601 779.734 356.561 774.988C365.839 767.575 375.294 759.968 384.975 752.133V750.182C374.037 759.155 363.35 767.738 352.915 776.126V776.093ZM337.375 769.494C329.152 776.191 321.206 782.66 313.612 788.902H315.825C323.847 782.303 332.245 775.476 340.97 768.421C355.127 756.944 369.737 745.078 384.95 732.301V730.188C384.799 730.318 384.648 730.448 384.497 730.578C368.102 744.46 352.462 757.172 337.35 769.461L337.375 769.494ZM378.135 729.245C362.143 742.802 346.93 755.254 332.195 767.283C323.017 774.793 314.216 781.978 305.868 788.935H308.08C316.856 781.653 326.135 774.11 335.791 766.243C350.903 753.954 366.493 741.242 382.888 727.392C383.567 726.807 384.271 726.19 384.975 725.604V723.361C382.687 725.344 380.398 727.327 378.135 729.245ZM350.978 720.565C363.149 710.097 374.414 699.986 384.95 690.103V687.404C373.081 698.751 360.232 710.357 346.226 722.418C332.094 734.61 318.641 745.858 305.667 756.717C292.113 768.063 279.365 778.727 267.722 788.902H269.985C282.005 778.401 295.181 767.445 309.212 755.742C322.589 744.59 336.419 733.049 350.978 720.533V720.565ZM301.593 712.86C290.604 722.516 280.119 731.521 269.985 740.267C249.517 757.92 230.909 773.948 215.294 788.902H217.608C233.323 773.85 252.157 757.66 273.405 739.421C283.941 730.383 294.854 721.02 306.295 711.007C337.676 683.535 363.199 658.535 384.95 633.924V630.251C362.168 656.649 335.212 683.34 301.593 712.86ZM88.1343 168.665C76.0394 254.33 50.6678 332.909 12.6732 402.254C8.5997 409.666 4.35014 416.981 0.0251453 424.198V429.985C5.80857 420.557 11.3657 410.999 16.6965 401.246C54.1882 332.453 79.0569 254.265 90.6237 168.893C97.8404 115.608 99.9526 59.0718 96.9604 0.0975318H95.4013C98.0919 58.8442 95.6779 115.283 88.1343 168.665ZM214.967 106.537C219.619 168.665 218.613 223.803 211.874 275.04C204.356 332.128 189.269 384.828 167.066 431.676C126.003 518.284 60.4996 590.003 1.81046 648.749C1.18183 649.367 0.628633 649.952 0.0251453 650.57V653.463C2.11221 651.35 4.22441 649.237 6.38691 647.059C64.9504 588.605 130.303 517.211 170.938 430.928C192.789 384.568 206.996 334.599 214.414 278.193C220.977 228.127 221.958 174.257 217.432 113.495C214.64 76.0423 209.838 38.1675 203.803 0.0975318H202.47C207.977 35.7942 212.327 71.3608 214.967 106.57V106.537ZM204.13 92.2976C209.083 156.734 208.078 213.887 201.037 267.01C193.217 326.244 177.451 380.829 154.191 429.238C115.467 509.929 55.5712 578.136 0.0251453 634.867V637.826C99.148 537.238 135.609 475.565 158.089 428.425C180.921 380.569 195.781 328.91 203.501 270.456C210.341 218.634 211.346 162.878 206.594 100.003C204.079 66.9393 200.056 33.5835 195.027 0.0975318H193.669C198.17 30.9826 201.766 61.7702 204.13 92.3301V92.2976ZM209.561 99.6125C214.339 162.878 213.333 218.959 206.443 271.106C198.774 329.235 183.36 382.845 160.628 430.44C120.521 514.513 57.4319 584.736 0.0502906 642.702V645.628C58.5132 587.109 123.765 515.683 164.551 429.66C186.88 382.585 201.414 331.803 208.983 274.39C215.697 223.478 216.702 168.698 212.05 106.895C209.41 71.5884 205.01 35.8917 199.478 0.0650212H198.07C203.074 33.4209 207.072 66.6468 209.561 99.6125ZM0.0251453 122.012C7.97107 81.7642 12.799 41.0284 14.5088 0.0975318H12.8241C11.0891 36.867 6.78924 73.539 0 109.886V122.012H0.0251453ZM187.76 67.5245C193.393 136.089 192.538 196.884 185.145 253.323C176.872 316.393 159.975 374.327 134.905 425.596C115.794 464.674 90.7997 503.362 58.4629 543.805C39.0255 568.155 18.7081 590.815 0.0251453 610.712V613.8C84.3877 524.526 117.655 468.283 138.802 424.751C163.017 374.945 179.387 318.669 187.433 257.484C194.675 202.574 195.58 143.469 190.249 76.725C188.213 51.3017 185.321 25.7159 181.776 0.0975318H180.393C183.385 22.6274 185.874 45.0922 187.735 67.5245H187.76ZM225.83 119.346C230.306 179.459 229.35 232.808 222.863 282.42C215.571 338.435 201.515 388.079 179.915 434.147C139.154 521.21 73.4746 592.863 14.5843 651.448C9.45464 656.552 4.62674 661.428 0.0251453 666.142V669.101C5.93429 662.989 12.2961 656.552 19.1607 649.725C77.9253 591.433 143.454 520.137 183.812 433.366C204.758 388.339 218.387 339.866 225.478 285.216C231.764 236.677 232.695 184.465 228.294 125.621C225.201 84.235 219.644 42.2313 212.604 0.0650212H211.246C217.733 40.0856 222.888 79.9761 225.83 119.314V119.346ZM193.242 76.3024C198.598 143.404 197.667 202.866 190.4 258.134C182.278 319.807 165.758 376.57 141.342 426.799C122.307 465.942 97.3627 504.662 65.0258 545.138C43.2751 572.382 20.4683 597.48 0.0502906 618.872V621.928C89.3162 528.818 123.64 470.754 145.264 425.987C168.876 377.123 184.868 321.953 192.789 262.068C199.905 208.263 200.861 150.362 195.756 84.9827C193.569 56.8285 190.275 28.5118 186.251 0.130042H184.868C188.364 25.6184 191.255 51.0417 193.267 76.3674L193.242 76.3024ZM198.698 84.5601C203.828 150.264 202.847 208.556 195.706 262.686C187.735 323.09 171.592 378.716 147.779 428.002C128.845 467.21 103.926 505.963 71.5887 546.438C47.4744 576.641 22.0524 604.145 0.0502906 626.902V629.893C94.2195 533.044 129.624 473.127 151.702 427.157C175.087 378.489 190.275 325.854 198.145 266.327C205.11 213.562 206.116 156.766 201.213 92.6552C198.849 61.9652 195.228 31.0476 190.702 0.0325106H189.294C193.292 28.2842 196.536 56.4709 198.723 84.4951L198.698 84.5601ZM212.076 440.291C172.044 528.557 105.912 600.016 46.4686 658.275C27.3078 677.066 11.8686 692.899 0.0251453 706.846V710.357C12.623 694.979 29.5709 677.554 51.045 656.552C110.363 598.585 176.319 527.485 215.923 439.543C275.065 308.298 263.448 155.498 234.405 0.0650212H233.122C261.536 155.596 271.871 308.396 212.05 440.259L212.076 440.291ZM0.0251453 57.7714C2.46424 38.5901 4.17412 19.3438 5.20508 0.0975318H3.52034C2.71569 13.882 1.55901 27.634 0.0251453 41.386V57.7714ZM0.0251453 8.12765C0.201163 5.46178 0.37718 2.7634 0.553197 0.0975318H0.0251453V8.12765ZM0.0251453 92.6227C5.1045 61.9652 8.39854 31.0801 9.85697 0.0975318H8.17223C6.78924 26.5287 4.0484 52.8948 0 79.1308V92.6227H0.0251453ZM231.236 125.263C235.662 184.465 234.732 237.002 228.395 285.866C221.254 341.004 207.499 389.932 186.352 435.382C145.742 522.706 79.9621 594.294 20.9712 652.813C13.1259 660.616 6.21089 667.638 0.0502906 674.075V677.066C7.66932 669.003 16.1684 660.388 25.5476 651.09C84.438 592.863 150.042 521.6 190.249 434.602C210.793 390.192 224.145 342.402 231.06 288.564C237.196 240.741 238.076 189.309 233.751 131.31C230.507 88.1037 224.523 44.1819 216.979 0.0650212H215.671C222.662 42.1012 228.194 83.9749 231.262 125.263H231.236ZM236.668 130.953C241.043 189.277 240.138 241.034 233.952 289.214C226.962 343.54 213.509 391.753 192.764 436.617C152.305 524.169 86.4245 595.757 27.3078 654.211C17.1491 664.257 8.0465 673.49 0 682.073V685.194C9.17804 675.213 19.8145 664.419 31.8843 652.488C90.8752 594.326 156.58 523.096 196.636 435.87C216.778 392.013 229.853 344.905 236.617 291.815C242.627 244.642 243.432 193.926 239.132 136.772C235.737 91.8425 229.35 46.0675 221.304 0.0975318H219.971C227.465 44.0519 233.424 87.8762 236.643 130.953H236.668ZM242.099 136.382C246.424 193.893 245.594 244.935 239.559 292.433C232.745 346.01 219.544 393.573 199.201 437.82C158.893 525.632 92.912 597.155 33.6947 655.544C20.7952 668.288 9.55522 679.699 0.0251453 690.168V693.289C10.5359 681.552 23.2594 668.581 38.2963 653.821C97.3878 595.724 163.168 524.559 203.099 437.073C262.718 306.445 253.44 154.816 225.73 0.0975318H224.372C232.368 45.905 238.73 91.5499 242.099 136.382ZM302.523 184.4C307.125 235.149 307.15 280.241 302.624 322.31C297.519 369.646 286.833 411.844 269.96 451.345C252.685 491.788 228.496 531.191 196.058 571.829C171.391 602.714 142.096 634.087 103.875 670.596C73.022 700.051 52.3526 720.728 38.0197 739.226C23.2343 758.31 16.3696 773.753 15.9421 788.967H18.1046C20.3929 756.197 49.4608 725.052 108.502 668.841C146.698 632.461 175.967 601.186 200.559 570.399C232.795 530.02 256.759 490.878 273.807 450.727C290.252 411.974 300.637 370.588 305.541 324.163C309.891 282.81 309.765 238.433 305.138 188.497C299.456 127.116 287.386 63.5257 273.405 0.130042H272.173C285.601 62.1278 297.092 124.288 302.548 184.433L302.523 184.4ZM220.399 113.104C224.95 174.192 223.969 228.387 217.356 278.811C209.888 335.737 195.555 386.161 173.503 432.944C132.616 519.78 67.0123 591.433 8.22252 650.115C5.40624 652.911 2.69055 655.641 0.0502906 658.34V661.266C4.12383 657.104 8.3231 652.845 12.799 648.392C71.463 590.002 136.916 518.674 177.4 432.163C198.799 386.486 212.704 337.298 219.946 281.769C226.383 232.483 227.339 179.491 222.888 119.704C219.946 80.2362 214.766 40.2481 208.228 0.0650212H206.871C212.88 37.9724 217.633 75.7497 220.424 113.072L220.399 113.104ZM98.9468 170.453C87.732 256.671 63.0393 335.477 25.5476 404.692C17.5766 419.452 9.00202 433.757 0.0251453 447.736V453.068C10.4605 437.138 20.3929 420.687 29.5457 403.717C89.8694 291.718 115.442 156.213 105.988 0.0975318H104.454C107.748 59.7545 105.912 116.811 98.9468 170.486V170.453ZM109.759 172.241C99.4246 258.98 75.436 338.013 38.4221 407.13C26.7043 429.01 13.7545 449.947 0.0502906 470.038V475.013C15.2632 453.133 29.6212 430.245 42.4202 406.155C78.9312 337.59 102.417 258.98 112.224 172.566C118.334 118.761 119.239 60.9899 114.99 0.0650212H113.481C117.403 60.6973 116.197 118.339 109.759 172.241ZM31.9848 405.927C22.1279 424.263 11.3657 441.917 0.0251453 458.985V464.251C12.8493 445.265 24.9693 425.531 35.983 404.952C72.7203 336.322 96.558 257.842 106.817 171.689C113.204 118.013 114.411 60.5348 110.489 0.0975318H108.955C118.434 156.994 92.6605 293.246 31.9848 405.927ZM93.5406 169.575C81.8983 255.533 56.8536 334.209 19.1104 403.489C13.0504 414.608 6.66351 425.499 0.0251453 436.162V441.657C8.09679 428.912 15.8667 415.876 23.1085 402.481C60.3488 333.754 84.8654 255.468 96.0048 169.835C102.945 116.388 104.781 59.5594 101.461 0.0975318H99.9024C102.895 59.2993 100.782 116.063 93.5154 169.575H93.5406ZM122.03 423.126C102.744 462.073 77.6739 500.663 45.3622 541.139C30.4007 559.865 14.9112 577.681 0.0251453 594.001V597.22C74.7822 515.716 105.786 463.309 125.953 422.313C151.501 370.426 168.675 311.614 176.998 247.601C184.466 190.22 185.195 128.384 179.286 58.5516C177.627 39.1428 175.464 19.6364 172.95 0.162553H171.567C190.149 149.516 184.894 296.204 122.005 423.191L122.03 423.126ZM0.0251453 225.396V234.499C23.9132 159.399 36.335 80.3662 37.5671 0.0975318H35.983C34.4239 76.9526 22.5051 152.832 0.0251453 225.396ZM0.0251453 244.447V253.42C10.561 222.438 19.211 190.545 25.8494 157.806C36.2344 106.537 41.6909 53.7725 42.219 0.130042H40.5594C39.277 83.9099 25.8494 166.389 0.0251453 244.48V244.447ZM12.4972 156.051C8.85115 172.631 4.67703 189.017 0.0251453 205.207V214.863C5.75828 195.519 10.7873 175.85 15.062 155.921C25.95 105.074 31.9346 52.9273 33.0158 0.0975318H31.3814C30.0235 52.8622 23.7372 105.042 12.5224 156.051H12.4972ZM165.356 24.9356C180.82 184.953 162.439 314.378 109.181 420.655C80.0375 478.784 41.3138 529.988 0.0502906 576.771V580.347C42.8476 532.459 83.2059 479.889 113.129 419.81C140.235 365.452 158.29 303.682 166.839 236.222C174.483 175.882 174.911 110.829 168.147 37.3872C167.015 24.9681 165.632 12.5491 164.124 0.0975318H162.715C163.671 8.38774 164.576 16.6779 165.381 24.9356H165.356ZM171.064 36.8995C185.371 192.365 167.216 318.279 115.593 421.89C85.0163 483.27 43.7277 536.75 0.0251453 585.419V588.897C14.2825 573.195 29.0428 556.191 43.3002 538.343C75.436 498.095 100.38 459.732 119.541 421.045C182.002 294.904 187.131 148.899 168.574 0.0975318H167.091C168.549 12.3865 169.932 24.643 171.064 36.8995ZM159.522 11.8339C176.394 176.89 157.812 310.216 102.744 419.419C75.0588 474.33 38.8244 523.096 0.0502906 567.895V571.634C40.4085 525.664 78.2019 475.403 106.692 418.542C159.572 313.077 177.803 184.498 162.414 25.4233C161.609 16.9705 160.679 8.51778 159.723 0.0975318H158.265C158.692 4.03132 159.12 7.93259 159.522 11.8339ZM131.359 175.85C127.21 218.504 119.717 259.5 109.08 297.635C97.8153 338.045 82.703 376.538 64.1457 412.039C45.7393 447.248 23.8378 480.247 0.0251453 511.489V515.878C25.3968 483.108 48.7568 448.354 68.1187 411.097C86.4245 375.855 101.31 337.623 112.299 297.407C122.659 259.5 129.901 218.764 133.823 176.273C138.878 121.2 138.626 63.0056 132.994 0.0650212H131.435C136.665 62.6479 136.665 121.557 131.384 175.85H131.359ZM120.547 174.062C111.092 261.32 87.8075 340.581 51.2713 409.601C35.983 438.503 18.5572 465.649 0.0251453 491.3V495.884C20.3929 468.218 39.1764 439.251 55.2443 408.658C91.2775 340.191 114.059 261.385 122.986 174.452C128.543 120.419 128.819 62.0302 123.916 0.0975318H122.407C126.984 61.7051 126.355 119.964 120.496 174.062H120.547ZM96.3066 418.184C70.1051 469.843 36.335 516.203 0.0251453 558.955V562.726C37.894 518.739 73.198 470.916 100.254 417.306C154.92 308.916 173.352 176.468 156.58 12.354C156.152 8.25769 155.725 4.19387 155.272 0.0975318H153.814C171.893 169.543 153.085 306.347 96.3066 418.216V418.184ZM136.765 176.76C132.843 219.512 125.551 260.573 115.09 298.74C104.001 339.248 89.0396 377.806 70.5829 413.307C50.5672 451.832 26.3271 487.627 0.0502906 521.34V525.664C27.9364 490.455 53.6098 452.938 74.5559 412.365C132.164 300.821 152.858 165.512 137.394 0.0975318H135.936C141.543 63.1681 141.82 121.525 136.74 176.76H136.765ZM182.253 58.0639C188.213 128.222 187.458 190.415 179.94 248.186C171.541 312.752 154.241 372.019 128.467 424.361C109.282 463.374 84.2368 501.996 51.9251 542.472C34.7508 563.962 16.8725 584.248 0.0502906 602.422V605.575C79.5849 520.17 111.721 465.812 132.415 423.548C157.284 372.734 174.031 315.255 182.228 252.705C189.571 196.624 190.426 136.187 184.818 67.9797C182.957 45.4498 180.443 22.8224 177.425 0.162553H175.992C178.481 19.5064 180.619 38.8502 182.253 58.129V58.0639ZM370.567 0.780255C375.344 17.003 380.172 33.3559 384.925 49.7737V45.6449C380.977 32.2505 377.004 18.8887 373.031 5.59183C372.478 3.77123 371.95 1.91813 371.396 0.0975318H370.365C370.441 0.325106 370.491 0.55268 370.567 0.780255ZM375.797 4.19387C378.839 14.3697 381.882 24.6105 384.899 34.8514V31.0476C382.687 23.6677 380.474 16.3203 378.261 8.97293C377.381 6.01446 376.476 3.056 375.596 0.130042H374.565C374.967 1.49549 375.369 2.86093 375.772 4.22638L375.797 4.19387ZM83.4322 415.746C60.2733 460.87 31.3311 502.094 0.0251453 540.489V544.553C32.9152 504.792 63.3411 461.976 87.38 414.835C144.208 303.584 163.52 167.755 146.346 0.0975318H144.862C161.181 167.397 140.99 303.649 83.4322 415.746ZM93.8172 416.071C150.218 304.917 168.876 168.828 150.796 0.0975318H149.338C166.512 168.47 147.025 305.015 89.8694 416.981C65.1767 465.357 33.8456 509.181 0.0251453 549.787V553.721C35.4046 511.814 68.2695 466.462 93.8172 416.071ZM384.925 65.2813V60.7623C379.292 41.1259 373.534 21.587 367.801 2.1457C367.599 1.46298 367.398 0.780255 367.197 0.0975318H366.141C372.452 21.6846 378.764 43.4667 384.925 65.2813ZM384.925 6.37208V2.99098C384.623 2.01566 384.321 1.07285 384.044 0.0975318H383.039C383.667 2.17821 384.296 4.25889 384.95 6.33957L384.925 6.37208ZM218.513 441.559C178.658 530.085 112.4 601.511 52.8555 659.705C30.1995 681.845 12.6732 699.953 0.0502906 715.689V719.362C14.5591 700.474 36.1338 678.756 57.4571 657.982C116.875 600.081 182.957 529.013 222.385 440.876C281.276 309.338 268.502 155.921 238.78 0.162553H237.498C266.566 156.051 278.082 309.436 218.513 441.592V441.559ZM381.052 7.54246C382.335 11.8339 383.642 16.1253 384.925 20.4167V16.8405C384.447 15.3125 383.994 13.7845 383.516 12.2565C382.284 8.22518 381.052 4.16136 379.82 0.0975318H378.789C379.543 2.56834 380.273 5.07165 381.027 7.54246H381.052ZM291.459 176.923C295.96 228.647 295.81 274.617 291.007 317.466C285.601 365.712 274.511 408.691 257.111 448.874C239.66 489.187 215.395 528.525 182.957 569.131C150.671 609.541 115.09 644.815 91.1266 667.833C38.0449 718.81 5.80857 752.165 5.85886 785.326C5.85886 786.529 5.90915 787.732 6.00973 788.935H7.97107C7.97107 788.61 7.94592 788.285 7.94592 787.96C7.94592 771.282 14.886 754.766 30.5264 734.447C44.8341 715.851 66.107 694.492 95.7785 666.077C133.823 629.633 162.967 598.39 187.509 567.668C219.745 527.322 243.784 488.244 261.008 448.191C277.982 408.756 288.744 366.622 293.949 319.319C298.576 277.218 298.626 231.996 294.125 181.117C288.895 122.045 277.856 61.0224 264.856 0.0650212H263.598C276.045 59.5594 286.531 119.119 291.535 176.89L291.459 176.923ZM296.991 180.726C301.543 231.963 301.467 277.478 296.815 319.937C291.56 367.695 280.672 410.284 263.523 450.142C246.148 490.52 221.933 529.89 189.495 570.496C164.878 601.316 135.634 632.689 97.4884 669.231C43.5768 720.858 10.8376 754.604 10.8628 787.96C10.8628 788.285 10.8628 788.61 10.8879 788.967H12.9498C13.3773 772.647 20.4934 756.359 35.9075 736.495C50.3661 717.834 71.1361 697.06 102.09 667.508C140.21 631.096 169.429 599.821 193.971 569.066C226.207 528.72 250.196 489.61 267.345 449.492C284.042 410.414 294.628 368.638 299.682 321.79C304.183 280.079 304.133 235.279 299.581 184.888C294.125 124.646 282.583 62.3228 269.08 0.130042H267.848C280.798 60.8924 291.761 121.752 296.991 180.759V180.726ZM250.674 447.671C233.122 487.919 208.832 527.225 176.394 567.83C144.158 608.176 108.653 643.45 84.7146 666.5C56.1746 693.971 35.6812 714.713 21.6753 733.179C7.19156 752.263 0.729214 767.575 0.75436 782.758C0.75436 784.806 0.880086 786.887 1.13154 788.967H2.96715C2.89171 787.765 2.84142 786.562 2.84142 785.359C2.79113 750.377 35.48 716.436 89.3162 664.744C113.204 641.792 148.709 606.648 180.87 566.367C213.107 526.022 237.171 486.976 254.496 446.988C271.72 407.195 282.709 364.671 288.04 316.913C292.792 274.39 292.943 228.745 288.492 177.345C283.463 119.476 272.927 59.787 260.43 0.0975318H259.198C291.585 157.676 309.011 313.922 250.674 447.671ZM237.799 445.233C220.072 485.351 195.706 524.591 163.294 565.164C131.183 605.38 95.8037 640.687 71.9659 663.769C35.304 699.271 11.8937 724.109 0.0251453 745.371V750.865C3.44491 743.843 8.09679 736.43 14.1065 728.433C28.0873 709.869 49.1842 688.445 76.5675 662.014C100.38 639.029 135.734 603.82 167.77 563.701C199.981 523.356 224.145 484.376 241.647 444.518C299.808 312.037 283.463 156.896 251.78 0.0975318H250.523C281.577 156.994 296.614 312.102 237.799 445.2V445.233ZM231.362 443.997C213.559 484.05 189.143 523.258 156.731 563.831C124.67 603.95 89.3665 639.321 65.579 662.404C34.6251 692.476 12.9247 715.233 0 734.74V739.096C12.7738 718.257 35.7064 694.069 70.1806 660.681C93.9429 637.663 129.222 602.454 161.207 562.401C193.418 522.088 217.608 483.14 235.209 443.315C293.622 311.159 278.459 156.571 247.43 0.130042H246.148C276.548 156.701 290.403 311.224 231.337 444.03L231.362 443.997ZM224.925 442.762C185.22 531.516 118.862 602.909 59.2172 661.038C32.6889 686.884 13.0504 707.301 0.0251453 724.889V728.758C13.2264 709.934 34.1976 688.087 63.8188 659.315C87.5309 636.265 122.759 601.024 154.669 561.036C186.88 520.722 211.12 481.807 228.797 442.047C287.461 310.216 273.481 156.213 243.13 0.0975318H241.848C271.595 156.311 284.268 310.281 224.95 442.762H224.925ZM244.211 446.436C226.584 486.619 202.244 525.892 169.831 566.465C137.671 606.746 102.216 642.052 78.3277 665.102C34.6 707.333 9.42949 734.642 0 758.603V766.633C3.06773 755.449 9.40435 743.778 19.5631 730.416C33.6947 711.787 54.2887 690.948 82.9544 663.346C106.792 640.394 142.222 605.185 174.333 565.002C206.544 524.656 230.683 485.643 248.084 445.72C265.585 405.57 276.775 362.591 282.281 314.378C287.185 271.431 287.411 225.331 282.985 173.412C278.158 116.778 268.125 58.4541 256.105 0.0650212H254.873C286.581 157.319 302.825 312.98 244.236 446.403L244.211 446.436ZM61.1283 164.179C49.3854 233.686 28.8668 298.935 0.0251453 358.722V365.647C30.451 304.169 51.8245 236.58 63.6177 164.276C72.1922 111.739 75.7126 56.796 74.229 0.0975318H72.6448C73.8267 56.601 70.0046 111.544 61.1031 164.179H61.1283ZM0.0251453 313.532V321.172C41.3138 224.388 61.8323 115.575 60.5499 0.0975318H58.9406C59.6196 112.162 39.6793 218.276 0 313.532H0.0251453ZM0.0251453 344.157V351.375C27.3581 293.408 46.896 230.37 58.2366 163.333C67.0877 110.959 70.8846 56.3084 69.7028 0.0975318H68.1187C70.1052 125.068 47.0217 241.944 0.0502906 344.157H0.0251453ZM0.0251453 329.105V336.517C44.985 236.287 67.0626 122.077 65.1264 0.0975318H63.5422C64.8498 118.664 43.3254 230.208 0.0251453 329.105ZM39.5284 160.57C30.4258 208.1 17.1994 253.778 0.0251453 297.277V305.275C37.6928 212.229 56.6524 109.008 55.9986 0.0975318H54.3642C54.3893 54.9104 49.4608 108.618 39.5284 160.57ZM1.70988 154.263C1.18183 156.571 0.578342 158.879 0.0251453 161.188V171.754C1.48357 165.869 2.91686 159.985 4.24956 154.035C15.6404 103.611 22.153 52.1145 23.7875 0.0975318H22.1279C20.242 52.082 13.4276 103.676 1.70988 154.263ZM141.216 187.814C137.143 228.745 129.926 268.05 119.792 304.624C109.03 343.41 94.647 380.374 77.0201 414.51C55.4203 456.351 28.8417 494.909 0.0502906 531.028V535.157C30.4258 497.64 58.4629 457.457 80.9931 413.6C138.174 302.219 158.189 166.649 141.87 0.0975318H140.411C146.748 67.6871 147 129.555 141.191 187.814H141.216ZM34.1222 159.66C25.8997 201.371 14.4837 241.716 0.0251453 280.437V288.662C15.8164 247.503 28.0622 204.362 36.6367 159.627C46.5188 107.968 51.4222 54.5853 51.397 0.0975318H49.7877C49.5363 54.4878 44.3312 107.903 34.1222 159.66ZM0.0251453 262.881V271.399C13.1259 235.149 23.5863 197.534 31.2305 158.717C41.364 107.252 46.544 54.1627 46.7954 0.0975318H45.161C44.6329 54.0651 39.1513 107.187 28.6908 158.782C21.449 194.511 11.8434 229.297 0 262.913L0.0251453 262.881ZM0.0251453 147.891C10.9131 99.3524 17.3251 49.9038 19.1607 0.0975318H17.5011C15.5901 46.0675 9.73124 91.7774 0.0251453 136.837V147.891ZM82.7281 167.787C70.2057 253.193 44.4821 331.673 6.23604 401.051C4.19927 404.725 2.11221 408.366 0.0251453 412.007V417.956C3.52034 412.039 6.94011 406.057 10.2593 400.043C47.9773 331.186 73.198 253.128 85.2175 168.015C92.7108 114.86 95.0996 58.6491 92.4342 0.130042H90.8752C93.264 58.4216 90.5483 114.567 82.7532 167.82L82.7281 167.787ZM106.264 296.367C116.825 258.492 124.268 217.789 128.392 175.395C133.673 121.265 133.647 62.5504 128.392 0.0975318H126.908C131.812 62.1928 131.485 120.777 125.928 174.972C116.926 262.491 93.9681 341.849 57.6834 410.837C40.9366 442.697 21.2981 472.769 0 501.444V505.995C22.8571 475.728 43.9289 443.835 61.6563 409.894C80.0627 374.685 95.0744 336.485 106.264 296.334V296.367ZM117.58 173.542C123.413 119.639 124.017 61.5426 119.44 0.0975318H117.932C122.181 61.2175 121.251 119.184 115.115 173.184C105.233 260.182 81.5714 339.313 44.809 408.398C31.3059 433.789 16.1181 457.912 0 480.832V485.708C17.6269 461.065 34.1976 435.057 48.8071 407.455C85.0666 338.923 108.2 260.247 117.58 173.574V173.542ZM66.5094 165.089C54.3139 239.831 31.9597 309.566 0 372.767V379.431C33.569 314.67 56.7781 242.724 68.9988 165.219C77.3219 112.519 80.5656 57.2512 78.7803 0.130042H77.1961C78.6797 57.0886 75.1342 112.292 66.5094 165.089ZM71.9156 165.999C59.3178 245.91 35.128 319.937 0 386.356V392.728C36.7876 324.944 61.8323 248.771 74.405 166.162C82.4515 113.299 85.4187 57.7388 83.3316 0.130042H81.7474C83.5327 57.5113 80.2639 113.039 71.9156 165.999ZM77.3219 166.909C64.3972 251.892 38.3718 330.113 0.0251453 399.458V405.537C1.28241 403.294 2.58997 401.083 3.82209 398.84C41.7915 329.918 67.3643 251.957 79.8112 167.105C87.5811 114.112 90.2717 58.194 87.8829 0.162553H86.3239C88.4109 57.9989 85.4186 113.82 77.347 166.942L77.3219 166.909Z" fill="var(--fill-0, white)"/>
</g>
</svg>
