<svg preserveAspectRatio="none" width="100%" height="100%" overflow="visible" style="display: block;" viewBox="0 0 40.0044 25.0027" fill="none" xmlns="http://www.w3.org/2000/svg">
<g id="master">
<rect id="Rectangle-1" width="40.0044" height="25.0027" rx="2.25025" fill="var(--fill-0, white)"/>
<g id="Group" opacity="0">
<path id="Vector" opacity="0" d="M35.0542 2.50005H5.00057V22.3772H35.0542V2.50005Z" fill="var(--fill-0, white)"/>
</g>
<path id="Vector_2" d="M23.9925 5.96259H16.0645V18.9114H23.9925V5.96259Z" fill="var(--fill-0, #FF5F00)"/>
<path id="Vector_3" d="M16.8812 12.4387C16.8802 11.1918 17.1628 9.96109 17.7077 8.83961C18.2526 7.71812 19.0455 6.73527 20.0263 5.96544C18.8115 5.01075 17.3526 4.41708 15.8164 4.25229C14.2802 4.0875 12.7286 4.35823 11.3389 5.03355C9.94928 5.70887 8.77767 6.76153 7.95799 8.07122C7.1383 9.3809 6.70362 10.8948 6.70362 12.4398C6.70362 13.9849 7.1383 15.4987 7.95799 16.8084C8.77767 18.1181 9.94928 19.1708 11.3389 19.8461C12.7286 20.5214 14.2802 20.7922 15.8164 20.6274C17.3526 20.4626 18.8115 19.8689 20.0263 18.9142C19.0452 18.1441 18.2521 17.1609 17.7072 16.039C17.1623 14.9171 16.8798 13.6859 16.8812 12.4387V12.4387Z" fill="var(--fill-0, #EB001B)"/>
<path id="Vector_4" d="M32.5631 17.5411V17.2761H32.6774V17.2212H32.4055V17.2761H32.5128V17.5411H32.5631ZM33.0909 17.5411V17.2212H33.0087L32.9127 17.4497L32.8168 17.2212H32.7345V17.5411H32.7939V17.2989L32.883 17.5069H32.9447L33.0338 17.2989V17.5411H33.0909Z" fill="var(--fill-0, #F79E1B)"/>
<path id="Vector_5" d="M33.3503 12.4385C33.3502 13.9836 32.9154 15.4976 32.0956 16.8073C31.2758 18.1171 30.104 19.1697 28.7142 19.8449C27.3244 20.5202 25.7726 20.7907 24.2363 20.6257C22.7 20.4607 21.2411 19.8667 20.0264 18.9117C21.0068 18.1412 21.7994 17.1581 22.3445 16.0365C22.8895 14.915 23.1727 13.6843 23.1727 12.4373C23.1727 11.1904 22.8895 9.95969 22.3445 8.83814C21.7994 7.71659 21.0068 6.73347 20.0264 5.96296C21.2411 5.00797 22.7 4.41401 24.2363 4.24898C25.7726 4.08396 27.3244 4.35452 28.7142 5.02974C30.104 5.70496 31.2758 6.7576 32.0956 8.06733C32.9154 9.37707 33.3502 10.891 33.3503 12.4362V12.4385Z" fill="var(--fill-0, #F79E1B)"/>
</g>
</svg>
