<svg preserveAspectRatio="none" width="100%" height="100%" overflow="visible" style="display: block;" viewBox="0 0 18.8699 8.31488" fill="none" xmlns="http://www.w3.org/2000/svg">
<g id="Group">
<g id="Vector">
</g>
<path id="Vector_2" d="M5.48244 2.23828L4.90741 2.80859L4.33239 2.23828H2.1216L1.43332 2.93172V2.23828H0.00012207V8.31293H1.6141V4.09611L2.03013 3.7267H3.66589V8.31293H5.27987V4.15659L5.71332 3.7267H7.28809V8.31293H8.8999V3.22336L7.90885 2.23828H5.48244Z" fill="var(--fill-0, white)"/>
<path id="Vector_3" d="M11.4014 3.61416H12.9609V4.86711H10.345L9.35181 5.85219V7.32981L10.345 8.31488H12.4665L13.1657 7.61064V8.31488H14.5183V3.22531L13.5251 2.24023H10.4234L9.43022 3.22531V4.21039H10.9527V4.06133L11.3992 3.61848L11.4014 3.61416ZM12.9609 6.70117L12.5558 7.04897H10.9092V5.72905H12.9609V6.70333V6.70117Z" fill="var(--fill-0, white)"/>
<path id="Vector_4" d="M15.0823 8.31268H16.2476L16.6963 7.86983V0H15.0823V8.31268Z" fill="var(--fill-0, white)"/>
<path id="Vector_5" d="M17.2581 8.31268H18.4233L18.8699 7.86983V0H17.2581V8.31268Z" fill="var(--fill-0, white)"/>
</g>
</svg>
