<svg preserveAspectRatio="none" width="100%" height="100%" overflow="visible" style="display: block;" viewBox="0 0 26.631 8.38181" fill="none" xmlns="http://www.w3.org/2000/svg">
<g id="Group">
<path id="Vector" d="M15.8723 0.00432474H13.6724L12.9841 0.697766V0.00432474H11.5509V8.38181H12.7162L13.1627 7.93896V6.07681H15.8701L16.8633 5.09173V0.985085L15.8701 0L15.8723 0.00432474ZM15.2406 4.62296H13.1649V1.85999L13.5831 1.49058H15.2406V4.62296Z" fill="var(--fill-0, white)"/>
<g id="Group_2">
<path id="Vector_2" d="M4.20812 6.07768L5.20133 5.0926V3.62794L1.62487 1.70315V1.18901L3.95763 1.18469V1.9451L5.31242 1.94942V0.988104L4.10574 0.00302646H1.015L0.0348506 0.988104V2.45276L3.59824 4.37755V4.8917H1.51161V4.19825H0V5.0926L0.993219 6.07768H4.20812Z" fill="var(--fill-0, white)"/>
<path id="Vector_3" d="M8.8214 6.0776L9.50969 5.38416V6.0776H10.9429V0.00295033H9.32891V4.21978L8.91071 4.58918H7.26405V0.00295033H5.65225V5.09252L6.64547 6.0776H8.8214Z" fill="var(--fill-0, white)"/>
<path id="Vector_4" d="M18.3418 0.00292969L17.3595 0.988008V5.0925L18.3418 6.07758H21.5458L22.5281 5.0925V3.96268H20.9708V4.77926H18.9408V3.33621H22.5281V0.988008L21.5458 0.00292969H18.3418ZM20.9708 2.53043H18.9408V1.29909H20.9708V2.53043Z" fill="var(--fill-0, white)"/>
<path id="Vector_5" d="M25.2545 0.00292969L24.4311 0.819508V0.00292969H23.0001V6.07758H24.1698L24.6119 5.63905V1.97309L25.0867 1.53672H26.631V0.00292969H25.2545Z" fill="var(--fill-0, white)"/>
</g>
</g>
</svg>
