<svg preserveAspectRatio="none" width="100%" height="100%" overflow="visible" style="display: block;" viewBox="0 0 80.2102 80.2102" fill="none" xmlns="http://www.w3.org/2000/svg">
<g id="Group 30072">
<circle id="Ellipse 2066" cx="40.1051" cy="40.1051" r="40.1051" fill="var(--fill-0, #FFE600)"/>
<g id="noon Food logo - English" clip-path="url(#clip0_0_564)">
<rect width="60.1576" height="17.546" transform="translate(10.0273 32.5869)" fill="#FFE600"/>
<path id="Vector" d="M59.8789 40.5747C59.8789 38.9268 61.0549 37.2519 63.2925 37.2519C65.0422 37.2519 66.0891 38.4135 66.0891 40.3586V48.3143H69.8898V40.102C69.8898 36.2254 67.509 33.7266 63.823 33.7266C62.1307 33.7266 60.596 34.2398 59.4055 35.1988L59.0615 34.0642H56.0781V48.3143H59.8789V40.5747Z" fill="var(--fill-0, #171717)"/>
<path id="Vector_2" d="M31.6678 33.7266C27.4082 33.7266 24.0664 36.9953 24.0664 41.1825C24.0664 45.3697 27.4082 48.6385 31.6678 48.6385C35.9276 48.6385 39.2692 45.3697 39.2692 41.1825C39.2692 36.9953 35.9276 33.7266 31.6678 33.7266ZM31.6678 45.0996C29.5022 45.0996 27.9245 43.4517 27.9245 41.169C27.9245 38.8863 29.5022 37.2519 31.6678 37.2519C33.8336 37.2519 35.4113 38.8998 35.4113 41.169C35.4113 43.4382 33.8336 45.0996 31.6678 45.0996Z" fill="var(--fill-0, #171717)"/>
<path id="Vector_3" d="M13.281 40.5747C13.281 38.9269 14.457 37.252 16.6944 37.252C18.4442 37.252 19.4912 38.4136 19.4912 40.3586V48.3143H23.2919V40.102C23.2919 36.2254 20.9111 33.7266 17.2251 33.7266C15.5327 33.7266 13.9981 34.2399 12.8077 35.1989L12.4635 34.0643H9.48026V48.3143H13.281V40.5747Z" fill="var(--fill-0, #171717)"/>
<path id="Vector_4" d="M47.7031 33.7266C43.4434 33.7266 40.1015 36.9953 40.1015 41.1826C40.1015 45.3698 43.4434 48.6385 47.7031 48.6385C51.9628 48.6385 55.3045 45.3698 55.3045 41.1826C55.3045 36.9953 51.9628 33.7266 47.7031 33.7266ZM47.7031 45.0996C45.5374 45.0996 43.9598 43.4518 43.9598 41.169C43.9598 38.8863 45.5374 37.252 47.7031 37.252C49.8688 37.252 51.4465 38.8999 51.4465 41.169C51.4465 43.4383 49.8688 45.0996 47.7031 45.0996Z" fill="var(--fill-0, #171717)"/>
</g>
</g>
<defs>
<clipPath id="clip0_0_564">
<rect width="60.1576" height="17.546" fill="white" transform="translate(10.0273 32.5869)"/>
</clipPath>
</defs>
</svg>
