<svg preserveAspectRatio="none" width="100%" height="100%" overflow="visible" style="display: block;" viewBox="0 0 68.1153 21.3843" fill="none" xmlns="http://www.w3.org/2000/svg">
<g id="Group">
<path id="Vector" d="M11.9776 0C18.8514 0 22.4798 4.09069 22.4798 9.4067C22.4798 15.6916 17.5438 21.3843 10.5022 21.3843C3.46063 21.3843 0 17.2936 0 12.022C0 5.7371 4.93607 0.00316564 11.9776 0.00316564V0ZM11.7655 5.73711C8.68798 5.73711 6.66163 8.60566 6.66163 11.6832C6.66163 14.1718 8.22255 15.6472 10.7523 15.6472C13.7887 15.6472 15.8562 12.7787 15.8562 9.70115C15.8562 7.21254 14.2953 5.73711 11.7655 5.73711Z" fill="var(--fill-0, black)"/>
<path id="Vector_2" d="M38.5919 9.44786C38.6774 9.06792 38.804 8.47901 38.804 7.97242C38.804 6.37034 37.4552 5.7371 36.021 5.7371C34.1244 5.7371 32.6458 6.75028 31.677 7.71913L28.7673 20.8777H22.2734L26.7852 0.506587H33.2791L32.687 2.9952C34.2479 1.56092 36.2711 0 39.3074 0C43.3981 0 45.8456 2.19416 45.8456 5.27168C45.8456 5.65162 45.7189 6.53815 45.6335 6.95925L42.5559 20.8777H36.0621L38.5919 9.44786Z" fill="var(--fill-0, black)"/>
<path id="Vector_3" d="M58.7529 0C63.8979 0 68.1153 3.24849 68.1153 9.19457C68.1153 10.461 67.862 12.022 67.6942 12.7375H53.2691V12.9908C53.2691 14.004 54.7857 16.3659 58.1608 16.3659C59.8484 16.3659 61.8304 15.9005 62.9259 15.0995L64.9079 19.4023C62.9259 20.7511 60.1428 21.3843 57.6542 21.3843C51.1604 21.3843 46.8164 18.0092 46.8164 12.1486C46.8164 5.61046 51.7936 0.00316564 58.7529 0.00316564V0ZM62.3813 8.22572C62.3813 6.91809 61.2858 5.02155 58.4584 5.02155C56.011 5.02155 54.2411 6.96242 53.9023 8.52334H62.337C62.3782 8.43785 62.3782 8.3112 62.3782 8.22888L62.3813 8.22572Z" fill="var(--fill-0, black)"/>
</g>
</svg>
