<svg preserveAspectRatio="none" width="100%" height="100%" overflow="visible" style="display: block;" viewBox="0 0 101.002 58.544" fill="none" xmlns="http://www.w3.org/2000/svg">
<g id="Group">
<path id="Vector" d="M100.891 28.6234C100.771 26.3406 100.312 24.0799 99.4791 21.9238C98.2538 18.7513 96.2591 15.9619 93.8117 13.6126C92.5136 12.3683 91.2724 11.0385 89.835 9.94929C87.2894 8.01793 84.4018 6.56149 81.4035 5.47549C75.6569 3.39848 69.6633 2.16368 63.6317 1.25498C53.9084 -0.21412 44.1756 -0.632055 34.4903 1.31198C25.7516 3.06604 17.2821 7.22005 10.3704 12.8748C8.70813 14.2331 6.5108 16.4843 5.31716 18.2763C2.50876 22.4905 5.78259 27.6419 7.75828 31.4571C9.50284 34.8196 11.2917 38.1599 13.1218 41.478C14.7587 44.4448 16.3069 47.4811 18.6657 49.9602C24.1939 55.8145 31.8339 57.9896 39.6765 58.4329C46.0246 58.7907 52.3886 58.2303 58.7083 57.5242C63.9737 56.9353 69.2264 56.2482 74.441 55.3111C79.1175 54.472 83.9934 53.7121 88.2519 51.4958C92.4914 49.2858 96.1768 45.9075 98.3108 41.592C99.5203 39.1477 100.185 36.3963 100.616 33.7146C100.885 32.0239 100.983 30.3141 100.894 28.6202L100.891 28.6234Z" fill="var(--fill-0, #30AE4A)"/>
<path id="Vector_2" d="M3.14746 27.851C2.79285 24.2289 3.69837 20.61 6.46877 17.6654C7.19066 16.8992 7.99803 16.2122 8.87506 15.6264C10.6386 14.4518 12.5383 13.4449 14.4918 12.6249C18.3546 11.0007 22.3851 9.67719 26.3872 8.42972C30.3195 7.20441 34.3058 6.14691 38.3521 5.36803C40.2898 4.99442 42.237 4.68414 44.1937 4.44034C51.4981 3.52848 58.8974 3.51899 66.2271 4.05407C73.5568 4.58915 75.1779 3.98758 86.4526 8.70201C90.4452 10.3706 94.0546 13.122 96.7363 16.5573C99.4339 20.0116 100.865 24.02 100.989 28.4716C101.131 33.6546 100.134 39.9743 96.882 44.0333C91.0277 51.3314 81.0036 52.6833 72.0054 53.1994C65.825 53.554 59.6193 53.4337 53.4326 53.4369C50.3962 53.4369 47.3567 53.4337 44.3204 53.421C32.3206 53.3767 20.6564 48.8301 11.0946 41.7284C10.8191 41.5226 10.5405 41.3326 10.2808 41.1078C6.55109 37.8815 3.64138 32.8662 3.15063 27.851H3.14746Z" fill="var(--fill-0, #C52A26)"/>
<path id="Vector_3" d="M4.20743 43.1344C2.86497 41.6273 1.7758 39.9144 1.03492 37.9831C-0.747636 33.3446 -0.108062 28.0825 2.04177 23.6783C4.45123 18.7454 7.88652 16.0415 13.1075 14.4647C27.9411 9.98461 43.8036 11.0579 59.2197 9.49069C65.2291 8.87962 71.2131 7.86011 77.2542 7.79996C79.5877 7.77779 81.9623 7.90444 84.166 8.67382C86.7686 9.58251 88.9944 11.3397 90.9289 13.3028C93.5885 16.0003 95.8206 19.1887 97.0174 22.7855C98.2143 26.3822 98.3187 30.4064 96.8971 33.9177C94.2502 40.4495 87.1422 43.8912 80.433 46.0537C71.6406 48.8874 62.5062 50.5465 53.3464 51.7464C42.2648 53.1965 30.8951 53.9628 19.9971 51.4931C14.1302 50.1633 8.10815 47.5133 4.21376 43.1376L4.20743 43.1344Z" fill="var(--fill-0, #F06298)"/>
<path id="Vector_4" d="M40.6137 8.30037C43.438 7.82228 46.3508 7.26187 49.3175 6.69829C55.1971 5.58063 60.5701 3.99121 65.4175 3.99121C73.6369 3.99121 80.2732 5.59013 84.994 8.7563C91.5036 13.1225 92.8872 19.5846 92.8999 24.2389C92.9221 31.5686 90.006 37.6191 84.2309 42.2259C76.401 48.4759 63.692 51.5218 48.4405 50.8031C35.5384 50.1952 23.8773 47.2601 15.6041 42.5362C10.0253 39.351 2.73363 33.6456 2.73047 25.328C2.73047 14.1736 15.9334 12.4797 40.6074 8.29721L40.6137 8.30037Z" fill="var(--fill-0, #F3E008)"/>
</g>
</svg>
