<svg preserveAspectRatio="none" width="100%" height="100%" overflow="visible" style="display: block;" viewBox="0 0 29.8701 20.1839" fill="none" xmlns="http://www.w3.org/2000/svg">
<g id="Group 18587">
<path id="Vector" d="M22.1147 14.4608C22.1147 15.2711 22.1073 15.9268 22.1188 16.5826C22.1229 16.8075 22.0496 16.8796 21.8361 16.8745C21.3159 16.8625 20.7941 16.8547 20.274 16.877C20.0037 16.8891 19.96 16.7749 19.9624 16.5294C19.9723 15.3612 19.9707 14.1921 19.9657 13.023C19.9616 12.1501 19.7819 11.344 19.0277 10.8239C18.3451 10.3535 17.609 10.3338 16.882 10.6891C16.1525 11.0462 15.7477 11.6848 15.7247 12.5149C15.6868 13.8393 15.6983 15.1655 15.709 16.4908C15.7115 16.7895 15.6348 16.8848 15.3447 16.8702C14.8386 16.8462 14.3308 16.8564 13.8238 16.8667C13.6342 16.871 13.5584 16.8161 13.5601 16.6058C13.5732 15.1234 13.5081 13.6367 13.6004 12.1604C13.6969 10.623 14.8954 8.98184 16.7641 8.51232C19.045 7.93896 21.339 9.23764 21.9325 11.5132C22.1979 12.532 22.0908 13.5792 22.1139 14.4608H22.1147Z" fill="url(#paint0_linear_0_683)"/>
<path id="Vector_2" d="M25.6035 2.19182C25.6035 2.74804 25.6423 3.30769 25.592 3.85788C25.55 4.31883 25.7643 4.40383 26.1204 4.45103C27.0593 4.57635 27.9809 4.51538 28.8736 4.19009C29.1678 4.0828 29.2841 4.16003 29.3698 4.45361C29.5017 4.90165 29.6591 5.34284 29.8256 5.77804C29.9188 6.02011 29.8718 6.12398 29.6253 6.20893C28.4342 6.61837 27.2159 6.73428 25.9802 6.56429C25.6258 6.51539 25.5953 6.63898 25.5994 6.93767C25.611 7.94969 25.5936 8.9617 25.6101 9.97283C25.6151 10.2793 25.5475 10.4123 25.226 10.3917C24.8032 10.3642 24.3762 10.3668 23.9525 10.3917C23.6359 10.4098 23.5271 10.311 23.5329 9.96511C23.5535 8.7969 23.5304 7.62781 23.5469 6.45957C23.551 6.14112 23.462 6.03556 23.1496 5.97202C22.1637 5.76947 21.1869 5.75916 20.2208 6.03725C19.9225 6.12309 19.8318 6.02353 19.765 5.75744C19.6513 5.30336 19.5441 4.84502 19.385 4.40809C19.2688 4.08795 19.4031 4.00984 19.6521 3.94975C20.8242 3.66821 22.0055 3.56691 23.1933 3.81156C23.4826 3.87076 23.5469 3.79952 23.5436 3.51283C23.5321 2.4725 23.5486 1.43217 23.5329 0.391838C23.5288 0.100854 23.598 -0.0150247 23.8956 0.00214335C24.3325 0.0270382 24.7735 0.0261771 25.2104 0.00214335C25.5071 -0.0141636 25.6242 0.0639461 25.6093 0.397847C25.5829 0.995265 25.6019 1.5944 25.6019 2.19354L25.6035 2.19182Z" fill="var(--fill-0, #FF00D4)"/>
<path id="Vector_3" d="M15.1589 5.39151C15.323 5.34946 15.3255 5.47047 15.3477 5.53402C15.5348 6.08166 15.7021 6.63698 15.8983 7.1812C16.0063 7.48078 15.7557 7.44557 15.642 7.49535C14.1038 8.16658 13.0677 9.3211 12.4923 10.9459C12.1626 11.8773 12.1131 12.8618 11.9318 13.8206C11.4957 16.1279 10.5173 18.0806 8.55707 19.3905C8.09547 19.6987 7.59842 19.9287 7.09148 20.1433C6.87713 20.2343 6.80214 20.1716 6.737 19.9647C6.58041 19.466 6.41718 18.9682 6.2317 18.4806C6.15587 18.2807 6.20122 18.2128 6.37928 18.1364C8.7409 17.1236 9.76139 15.1588 10.0474 12.6318C10.298 10.4129 11.0391 8.4138 12.6893 6.87821C13.3817 6.23442 14.1805 5.77862 15.0402 5.43015C15.0914 5.40954 15.1441 5.39582 15.1598 5.39151H15.1589Z" fill="url(#paint1_linear_0_683)"/>
<path id="Vector_4" d="M4.35563 8.38651C1.84811 8.38994 0.00661229 10.2346 1.78382e-05 12.7581C-0.00657662 15.2843 1.81596 17.2002 4.23201 17.2061C6.70327 17.2122 8.55134 15.3564 8.56207 12.8629C8.57361 9.94702 6.38589 8.38309 4.35563 8.38651ZM4.34081 15.1521C3.04664 15.1478 2.13497 14.1581 2.14404 12.7659C2.15228 11.4431 3.0755 10.4474 4.28557 10.456C5.52202 10.4646 6.42382 11.4637 6.41641 12.8156C6.409 14.1264 5.49482 15.1556 4.33997 15.1513L4.34081 15.1521Z" fill="url(#paint2_linear_0_683)"/>
</g>
<defs>
<linearGradient id="paint0_linear_0_683" x1="17.8344" y1="8.37721" x2="17.8344" y2="16.8779" gradientUnits="userSpaceOnUse">
<stop stop-color="#3D3D3D"/>
<stop offset="1"/>
</linearGradient>
<linearGradient id="paint1_linear_0_683" x1="11.0606" y1="5.38283" x2="11.0606" y2="20.1839" gradientUnits="userSpaceOnUse">
<stop stop-color="#3D3D3D"/>
<stop offset="1"/>
</linearGradient>
<linearGradient id="paint2_linear_0_683" x1="4.28106" y1="8.38651" x2="4.28106" y2="17.2062" gradientUnits="userSpaceOnUse">
<stop stop-color="#3D3D3D"/>
<stop offset="1"/>
</linearGradient>
</defs>
</svg>
