<svg preserveAspectRatio="none" width="100%" height="100%" overflow="visible" style="display: block;" viewBox="0 0 28.9994 19.7196" fill="none" xmlns="http://www.w3.org/2000/svg">
<g id="Group 18587">
<path id="Vector_2" d="M24.8571 2.1413C24.8571 2.68473 24.8948 3.23151 24.8459 3.76905C24.8051 4.21941 25.0132 4.30245 25.3589 4.34857C26.2704 4.47101 27.1652 4.41144 28.0319 4.09363C28.3176 3.9888 28.4304 4.06426 28.5137 4.35109C28.6417 4.78882 28.7945 5.21987 28.9562 5.64506C29.0466 5.88156 29.001 5.98305 28.7617 6.06605C27.6053 6.46608 26.4225 6.57931 25.2229 6.41323C24.8788 6.36546 24.8492 6.48621 24.8532 6.77803C24.8644 7.76678 24.8475 8.75552 24.8635 9.74341C24.8683 10.0428 24.8027 10.1728 24.4906 10.1527C24.0801 10.1258 23.6655 10.1283 23.2542 10.1527C22.9469 10.1703 22.8412 10.0738 22.8468 9.73586C22.8668 8.59451 22.8444 7.45231 22.8604 6.31093C22.8644 5.9998 22.778 5.89666 22.4747 5.83458C21.5176 5.63669 20.5692 5.62662 19.6313 5.89832C19.3416 5.98218 19.2535 5.88491 19.1887 5.62493C19.0783 5.1813 18.9743 4.7335 18.8198 4.30662C18.707 3.99384 18.8374 3.91752 19.0791 3.85882C20.2171 3.58374 21.3639 3.48478 22.5171 3.7238C22.798 3.78163 22.8604 3.71204 22.8572 3.43193C22.846 2.41553 22.862 1.39912 22.8468 0.382707C22.8428 0.0984129 22.9101 -0.0148013 23.199 0.00197203C23.6231 0.0262945 24.0513 0.0254532 24.4754 0.00197203C24.7635 -0.01396 24.8772 0.0623537 24.8627 0.388577C24.8371 0.972259 24.8555 1.55762 24.8555 2.14298L24.8571 2.1413Z" fill="var(--fill-0, #FF00D4)"/>
<g id="Group 2147226607">
<path id="Vector" d="M21.4709 14.1277C21.4709 14.9194 21.4637 15.5601 21.4749 16.2008C21.4789 16.4205 21.4077 16.4909 21.2004 16.4859C20.6954 16.4742 20.1888 16.4666 19.6839 16.4884C19.4214 16.5002 19.3789 16.3886 19.3814 16.1488C19.391 15.0074 19.3894 13.8652 19.3845 12.723C19.3805 11.8701 19.2061 11.0827 18.4738 10.5745C17.8112 10.1149 17.0965 10.0956 16.3907 10.4428C15.6824 10.7917 15.2895 11.4156 15.2671 12.2266C15.2303 13.5205 15.2415 14.8162 15.2519 16.111C15.2543 16.4029 15.1798 16.496 14.8982 16.4817C14.4068 16.4583 13.9138 16.4683 13.4216 16.4784C13.2376 16.4826 13.1639 16.4289 13.1655 16.2234C13.1783 14.7751 13.1151 13.3226 13.2047 11.8802C13.2984 10.3782 14.462 8.77477 16.2762 8.31604C18.4906 7.75586 20.7178 9.02468 21.294 11.2479C21.5517 12.2433 21.4477 13.2665 21.4701 14.1277H21.4709Z" fill="url(#paint0_linear_0_522)"/>
<path id="Vector_3" d="M14.7187 5.26724C14.8779 5.22615 14.8803 5.34438 14.9019 5.40647C15.0836 5.94151 15.246 6.48407 15.4365 7.01578C15.5414 7.30847 15.2981 7.27407 15.1876 7.3227C13.6943 7.9785 12.6883 9.10647 12.1297 10.694C11.8096 11.6039 11.7616 12.5658 11.5855 13.5025C11.1622 15.7568 10.2122 17.6646 8.30918 18.9444C7.86103 19.2454 7.37847 19.4702 6.8863 19.6798C6.67819 19.7687 6.60538 19.7075 6.54215 19.5054C6.39012 19.0182 6.23164 18.5317 6.05157 18.0554C5.97795 17.86 6.02198 17.7938 6.19485 17.7191C8.48765 16.7295 9.47841 14.81 9.75609 12.341C9.9994 10.1732 10.7188 8.22003 12.321 6.71975C12.9933 6.09077 13.7687 5.64545 14.6034 5.30499C14.6531 5.28485 14.7043 5.27145 14.7195 5.26724H14.7187Z" fill="url(#paint1_linear_0_522)"/>
<path id="Vector_4" d="M4.22871 8.19307C1.79426 8.19641 0.00641961 9.99862 1.73184e-05 12.4642C-0.00638498 14.9322 1.76304 16.8041 4.10869 16.8099C6.50794 16.8158 8.30216 15.0027 8.31258 12.5665C8.32378 9.71769 6.19981 8.18972 4.22871 8.19307ZM4.21432 14.8031C2.95787 14.7989 2.07275 13.832 2.08156 12.4717C2.08956 11.1794 2.98588 10.2066 4.16069 10.215C5.36111 10.2234 6.23664 11.1995 6.22944 12.5204C6.22224 13.8009 5.33471 14.8065 4.21351 14.8023L4.21432 14.8031Z" fill="url(#paint2_linear_0_522)"/>
</g>
</g>
<defs>
<linearGradient id="paint0_linear_0_522" x1="17.3154" y1="9.26316" x2="17.3154" y2="19.0244" gradientUnits="userSpaceOnUse">
<stop stop-color="#475067"/>
<stop offset="1" stop-color="#101628"/>
</linearGradient>
<linearGradient id="paint1_linear_0_522" x1="10.7398" y1="7.1377" x2="10.7398" y2="24.1336" gradientUnits="userSpaceOnUse">
<stop stop-color="#475067"/>
<stop offset="1" stop-color="#101628"/>
</linearGradient>
<linearGradient id="paint2_linear_0_522" x1="4.15631" y1="9.31268" x2="4.15631" y2="19.4401" gradientUnits="userSpaceOnUse">
<stop stop-color="#475067"/>
<stop offset="1" stop-color="#101628"/>
</linearGradient>
</defs>
</svg>
