<svg preserveAspectRatio="none" width="100%" height="100%" overflow="visible" style="display: block;" viewBox="0 0 8.16671 8.1667" fill="none" xmlns="http://www.w3.org/2000/svg">
<g id="Group">
<path id="Vector" d="M1.82238 3.86367C1.46697 3.86367 1.14938 3.78033 0.87716 3.61367C0.604938 3.447 0.393211 3.21973 0.234415 2.92427C0.0756183 2.63639 0 2.30306 0 1.93185C0 1.56064 0.0756196 1.21215 0.226854 0.924272C0.378089 0.636393 0.589816 0.409121 0.8696 0.242454C1.14938 0.0757873 1.45941 2.99345e-05 1.82238 2.99345e-05C2.18534 2.99345e-05 2.49537 0.0833632 2.76759 0.25003C3.03981 0.416697 3.25154 0.643969 3.40278 0.931848C3.55401 1.21973 3.62963 1.55306 3.62963 1.93185C3.62963 2.31064 3.55401 2.63639 3.40278 2.92427C3.25154 3.21215 3.03981 3.447 2.76759 3.61367C2.49537 3.78033 2.18534 3.86367 1.82238 3.86367ZM0.552006 8.00003L6.10231 0.174272H7.57685L1.9963 8.00003H0.559569H0.552006ZM1.81482 2.87882C2.04923 2.87882 2.23071 2.78791 2.38194 2.60609C2.53318 2.42427 2.60124 2.197 2.60124 1.93185C2.60124 1.6667 2.52562 1.43942 2.38194 1.25761C2.23827 1.07579 2.04923 0.992454 1.81482 0.992454C1.5804 0.992454 1.40648 1.08336 1.27037 1.25761C1.1267 1.43942 1.05864 1.65912 1.05864 1.93185C1.05864 2.20457 1.1267 2.42427 1.27037 2.60609C1.41404 2.78791 1.59553 2.87882 1.81482 2.87882ZM6.34429 8.16669C5.99645 8.16669 5.68642 8.08336 5.41419 7.9167C5.14197 7.75003 4.93025 7.52276 4.77145 7.2273C4.61265 6.93942 4.53703 6.60609 4.53703 6.23488C4.53703 5.86367 4.61265 5.52276 4.76389 5.2273C4.91512 4.93942 5.12685 4.71215 5.40663 4.54548C5.68642 4.37882 5.99645 4.30306 6.35941 4.30306C6.72237 4.30306 7.01728 4.38639 7.28951 4.55306C7.56173 4.71973 7.77345 4.947 7.93225 5.23488C8.09105 5.52276 8.16667 5.85609 8.16667 6.23488C8.16667 6.61367 8.09105 6.93942 7.93225 7.2273C7.77345 7.51518 7.56173 7.75003 7.28951 7.9167C7.01728 8.08336 6.70725 8.16669 6.34429 8.16669ZM6.34429 7.18942C6.5787 7.18942 6.76018 7.09851 6.90386 6.9167C7.04753 6.73488 7.11558 6.5076 7.11558 6.24245C7.11558 5.9773 7.04753 5.75003 6.90386 5.56821C6.76018 5.38639 6.5787 5.29548 6.34429 5.29548C6.10988 5.29548 5.93595 5.38639 5.79228 5.56821C5.64861 5.75003 5.57299 5.9773 5.57299 6.24245C5.57299 6.5076 5.64105 6.73488 5.79228 6.9167C5.94352 7.09851 6.125 7.18942 6.34429 7.18942Z" fill="var(--fill-0, #FEFDC8)"/>
</g>
</svg>
