<svg preserveAspectRatio="none" width="100%" height="100%" overflow="visible" style="display: block;" viewBox="0 0 16 16" fill="none" xmlns="http://www.w3.org/2000/svg">
<g id="material-symbols:timer-outline-rounded">
<path id="Vector" d="M6.66667 2C6.47778 2 6.31956 1.936 6.192 1.808C6.06444 1.68 6.00044 1.52178 6 1.33333C5.99956 1.14489 6.06356 0.986667 6.192 0.858667C6.32044 0.730667 6.47867 0.666667 6.66667 0.666667H9.33333C9.52222 0.666667 9.68067 0.730667 9.80867 0.858667C9.93667 0.986667 10.0004 1.14489 10 1.33333C9.99956 1.52178 9.93556 1.68022 9.808 1.80867C9.68044 1.93711 9.52222 2.00089 9.33333 2H6.66667ZM8 9.33333C8.18889 9.33333 8.34733 9.26933 8.47533 9.14133C8.60333 9.01333 8.66711 8.85511 8.66667 8.66667V6C8.66667 5.81111 8.60267 5.65289 8.47467 5.52533C8.34667 5.39778 8.18844 5.33378 8 5.33333C7.81156 5.33289 7.65333 5.39689 7.52533 5.52533C7.39733 5.65378 7.33333 5.812 7.33333 6V8.66667C7.33333 8.85556 7.39733 9.014 7.52533 9.142C7.65333 9.27 7.81156 9.33378 8 9.33333ZM8 14.6667C7.17778 14.6667 6.40267 14.5084 5.67467 14.192C4.94667 13.8756 4.31067 13.4449 3.76667 12.9C3.22267 12.3551 2.79222 11.7189 2.47533 10.9913C2.15844 10.2638 2 9.48889 2 8.66667C2 7.84444 2.15844 7.06933 2.47533 6.34133C2.79222 5.61333 3.22267 4.97733 3.76667 4.43333C4.31067 3.88933 4.94689 3.45889 5.67533 3.142C6.40378 2.82511 7.17867 2.66667 8 2.66667C8.68889 2.66667 9.35 2.77778 9.98333 3C10.6167 3.22222 11.2111 3.54444 11.7667 3.96667L12.2333 3.5C12.3556 3.37778 12.5111 3.31667 12.7 3.31667C12.8889 3.31667 13.0444 3.37778 13.1667 3.5C13.2889 3.62222 13.35 3.77778 13.35 3.96667C13.35 4.15556 13.2889 4.31111 13.1667 4.43333L12.7 4.9C13.1222 5.45556 13.4444 6.05 13.6667 6.68333C13.8889 7.31667 14 7.97778 14 8.66667C14 9.48889 13.8416 10.264 13.5247 10.992C13.2078 11.72 12.7773 12.356 12.2333 12.9C11.6893 13.444 11.0531 13.8747 10.3247 14.192C9.59622 14.5093 8.82133 14.6676 8 14.6667ZM8 13.3333C9.28889 13.3333 10.3889 12.8778 11.3 11.9667C12.2111 11.0556 12.6667 9.95556 12.6667 8.66667C12.6667 7.37778 12.2111 6.27778 11.3 5.36667C10.3889 4.45556 9.28889 4 8 4C6.71111 4 5.61111 4.45556 4.7 5.36667C3.78889 6.27778 3.33333 7.37778 3.33333 8.66667C3.33333 9.95556 3.78889 11.0556 4.7 11.9667C5.61111 12.8778 6.71111 13.3333 8 13.3333Z" fill="var(--fill-0, #BB7000)"/>
</g>
</svg>
