<svg preserveAspectRatio="none" width="100%" height="100%" overflow="visible" style="display: block;" viewBox="0 0 39.9992 24.9995" fill="none" xmlns="http://www.w3.org/2000/svg">
<g id="visa">
<rect id="Rectangle-1" width="39.9992" height="24.9995" rx="2.24996" fill="var(--fill-0, white)"/>
<path id="checkout_visa" d="M15.718 6.44243L11.1696 17.2688H8.20146L5.93796 8.64187C5.80983 8.10802 5.68171 7.91584 5.27599 7.68095C4.59267 7.31793 3.48227 6.97627 2.5 6.76273L2.56406 6.44243H7.3473C7.96656 6.44243 8.50041 6.84815 8.64988 7.55282L9.8457 13.8095L12.7712 6.44243H15.718V6.44243ZM27.3771 13.7454C27.3985 10.884 23.4267 10.7132 23.448 9.45331C23.448 9.06894 23.8324 8.64187 24.6439 8.55645C25.0496 8.51374 26.16 8.47104 27.4198 9.04759L27.911 6.72003C27.2277 6.48514 26.3522 6.25024 25.2845 6.25024C22.5085 6.25024 20.5439 7.72365 20.5226 9.83768C20.5012 11.3965 21.9319 12.272 22.9783 12.7845C24.0673 13.3183 24.4517 13.66 24.4303 14.1298C24.4303 14.8558 23.5548 15.1761 22.7434 15.1975C21.334 15.2188 20.5012 14.8131 19.8606 14.5141L19.3481 16.8844C20.0101 17.1834 21.2273 17.4396 22.4871 17.461C25.4339 17.4396 27.3771 15.9876 27.3771 13.7454ZM34.7442 17.2688H37.3493L35.0645 6.44243H32.6729C32.139 6.44243 31.6692 6.76273 31.4771 7.23252L27.249 17.2688H30.1958L30.7724 15.6459H34.3812L34.7442 17.2688ZM31.5838 13.4465L33.0572 9.38925L33.9114 13.4465H31.5838ZM19.7538 6.44243L17.4263 17.2688H14.6076L16.9351 6.44243H19.7538Z" fill="var(--fill-0, #1A1F71)"/>
</g>
</svg>
