<svg preserveAspectRatio="none" width="100%" height="100%" overflow="visible" style="display: block;" viewBox="0 0 15.333 10.6412" fill="none" xmlns="http://www.w3.org/2000/svg">
<path id="Wifi" d="M5.44825 8.15198C6.72891 7.105 8.60509 7.105 9.88575 8.15198C9.95009 8.20829 9.98749 8.28782 9.98926 8.37171C9.99103 8.45565 9.95653 8.53653 9.89454 8.59534L7.88965 10.5514C7.83087 10.6089 7.75062 10.6412 7.667 10.6412C7.58341 10.6412 7.5031 10.6089 7.44434 10.5514L5.43848 8.59534C5.3767 8.53653 5.34293 8.45552 5.34473 8.37171C5.34657 8.28787 5.38392 8.20824 5.44825 8.15198ZM2.77247 5.54261C5.53159 3.06186 9.80432 3.06193 12.5635 5.54261C12.6258 5.60078 12.6622 5.68057 12.6631 5.76429C12.6639 5.84796 12.6294 5.92856 12.5684 5.98792L11.4092 7.11976C11.2898 7.23528 11.0972 7.23792 10.9746 7.12562C10.0685 6.33257 8.88934 5.89312 7.667 5.89319C6.44549 5.8937 5.26776 6.33312 4.36231 7.12562C4.23976 7.23813 4.04621 7.23535 3.92676 7.11976L2.76856 5.98792C2.70739 5.92863 2.67303 5.84801 2.67383 5.76429C2.67465 5.68063 2.71026 5.60077 2.77247 5.54261ZM0.0966862 2.94007C4.3286 -0.980023 11.0054 -0.980023 15.2373 2.94007C15.2984 2.99828 15.3325 3.07784 15.333 3.16077C15.3335 3.24382 15.2998 3.32353 15.2393 3.38245L14.0791 4.51429C13.9595 4.63047 13.765 4.63258 13.6436 4.51819C12.0312 3.03657 9.89171 2.20969 7.667 2.2096C5.44208 2.20962 3.302 3.03647 1.68946 4.51819C1.5681 4.63254 1.37432 4.63057 1.25489 4.51429L0.0937565 3.38245C0.0332746 3.3235 -0.000539017 3.24379 6.49969e-06 3.16077C0.00057176 3.07772 0.0353871 2.99826 0.0966862 2.94007Z" fill="var(--fill-0, black)"/>
</svg>
